<svg width="24" height="24" viewBox="0 0 24 24" fill="white" xmlns="http://www.w3.org/2000/svg">
<path d="M5.625 11V13C5.625 13.2984 5.50647 13.5846 5.2955 13.7955C5.08452 14.0065 4.79837 14.125 4.5 14.125C4.20163 14.125 3.91548 14.0065 3.7045 13.7955C3.49353 13.5846 3.375 13.2984 3.375 13V11C3.375 10.7017 3.49353 10.4155 3.7045 10.2046C3.91548 9.99357 4.20163 9.87505 4.5 9.87505C4.79837 9.87505 5.08452 9.99357 5.2955 10.2046C5.50647 10.4155 5.625 10.7017 5.625 11ZM8.25 9.87505C7.95163 9.87505 7.66548 9.99357 7.4545 10.2046C7.24353 10.4155 7.125 10.7017 7.125 11V13C7.125 13.2984 7.24353 13.5846 7.4545 13.7955C7.66548 14.0065 7.95163 14.125 8.25 14.125C8.54837 14.125 8.83452 14.0065 9.0455 13.7955C9.25647 13.5846 9.375 13.2984 9.375 13V11C9.375 10.7017 9.25647 10.4155 9.0455 10.2046C8.83452 9.99357 8.54837 9.87505 8.25 9.87505ZM12 9.87505C11.7016 9.87505 11.4155 9.99357 11.2045 10.2046C10.9935 10.4155 10.875 10.7017 10.875 11V13C10.875 13.2984 10.9935 13.5846 11.2045 13.7955C11.4155 14.0065 11.7016 14.125 12 14.125C12.2984 14.125 12.5845 14.0065 12.7955 13.7955C13.0065 13.5846 13.125 13.2984 13.125 13V11C13.125 10.7017 13.0065 10.4155 12.7955 10.2046C12.5845 9.99357 12.2984 9.87505 12 9.87505ZM15.75 9.87505C15.4516 9.87505 15.1655 9.99357 14.9545 10.2046C14.7435 10.4155 14.625 10.7017 14.625 11V13C14.625 13.2984 14.7435 13.5846 14.9545 13.7955C15.1655 14.0065 15.4516 14.125 15.75 14.125C16.0484 14.125 16.3345 14.0065 16.5455 13.7955C16.7565 13.5846 16.875 13.2984 16.875 13V11C16.875 10.7017 16.7565 10.4155 16.5455 10.2046C16.3345 9.99357 16.0484 9.87505 15.75 9.87505ZM19.5 9.875C19.2016 9.875 18.9155 9.99353 18.7045 10.2045C18.4935 10.4155 18.375 10.7016 18.375 11V13C18.375 13.2984 18.4935 13.5846 18.7045 13.7955C18.9155 14.0065 19.2016 14.125 19.5 14.125C19.7984 14.125 20.0845 14.0065 20.2955 13.7955C20.5065 13.5846 20.625 13.2984 20.625 13V11C20.625 10.7016 20.5065 10.4155 20.2955 10.2045C20.0845 9.99353 19.7984 9.875 19.5 9.875Z" fill="white"/>
</svg>
