<svg width="478" height="42" viewBox="0 0 478 42" fill="none" xmlns="http://www.w3.org/2000/svg">
<path d="M474.608 32.0244C475.043 32.0566 475.462 32.0244 475.865 31.9277C475.446 31.96 475.027 31.9922 474.608 32.0244Z" fill="#462B17"/>
<path d="M297.323 41.32C297.822 41.1911 297.822 40.3696 297.693 39.9347C297.516 39.3548 297.274 38.9199 296.904 38.5655C295.116 35.5372 292.249 33.8297 289.398 32.3316C285.306 30.1893 281.086 28.6107 277.381 25.5824C277.284 25.5018 277.188 25.4213 277.091 25.3407C278.589 24.7286 280.264 24.5192 281.811 24.2776C283.953 23.9393 286.112 23.891 288.27 23.9232C292.506 24.0038 296.711 24.6642 300.931 25.0991C305.135 25.534 309.275 26.4844 313.463 26.9354C317.78 27.4026 322.065 28.0147 326.382 28.4013C330.57 28.7879 334.726 29.3194 338.914 29.7221C343.166 30.1087 347.483 30.1248 351.736 30.2859C353.701 30.3665 355.666 30.2215 357.631 30.2859C359.629 30.3665 361.594 30.6081 363.591 30.6242C366.024 30.6242 368.504 30.6886 370.969 30.5759C371.114 30.737 371.323 30.8336 371.5 30.7208C371.613 30.6403 371.726 30.592 371.855 30.5275C372.692 30.4792 373.514 30.4148 374.335 30.302C374.996 30.3987 375.64 30.5598 376.252 30.6564C378.137 30.9947 380.199 30.6564 382.1 30.5759C386.626 30.3665 391.152 30.7692 395.679 30.7692C400.173 30.7692 404.667 30.898 409.161 30.7208C413.655 30.5437 418.117 29.8832 422.627 29.8188C432.018 29.6738 441.409 29.7383 450.784 30.3342C455.262 30.6242 459.757 30.737 464.235 30.8175C466.361 30.8658 468.471 31.1558 470.597 31.2685C471.628 31.333 472.756 31.2685 473.851 31.333C473.819 31.3974 473.819 31.494 473.851 31.5907C474.818 31.5101 475.8 31.4457 476.767 31.3813C476.09 31.2846 475.414 31.188 474.753 31.043C472.611 30.6081 469.583 29.996 468.31 27.6925C467.037 25.3891 467.843 22.2158 469.905 20.8627C471.677 19.7029 473.738 19.1552 475.816 18.9297C475.317 18.7848 474.528 18.6398 474.125 18.9136C471.016 18.5431 467.923 18.9781 464.815 19.2519C461.206 19.5741 457.598 19.1069 453.99 19.2519C450.382 19.413 446.79 19.5257 443.198 19.5902C441.265 19.6224 439.348 19.6546 437.415 19.6868C435.933 19.7029 434.419 19.8962 432.953 19.719C433.79 18.9136 434.58 18.076 435.321 17.2062C436.287 16.0786 437.495 15.1443 438.542 14.1134C439.638 13.0181 440.685 11.8744 441.78 10.779C443.407 9.15213 445.179 7.76683 446.983 6.41375C447.998 5.35062 449.061 4.35192 450.188 3.44987C450.688 2.53171 451.01 1.533 450.801 0.485979C450.752 0.22825 450.559 -0.0294796 450.301 0.00273659C449.818 0.0671689 449.335 0.115493 448.851 0.163817C448.739 0.163817 448.69 0.260466 448.706 0.373222C446.725 1.35582 445.131 3.06327 443.31 4.38413C441.232 5.89829 439.122 7.34802 436.948 8.68499C432.244 11.5522 427.54 13.9362 422.466 15.837C420.437 16.5941 418.375 17.2545 416.442 18.221C415.894 18.2693 415.347 18.3015 414.815 18.3176C412.753 18.3659 410.74 18.7686 408.694 18.8009C404.313 18.8653 399.947 19.1552 395.582 19.2358C391.104 19.3163 386.658 18.5109 382.196 18.3337C378.073 18.1726 373.917 17.931 369.777 18.1243C369.664 18.1404 369.6 18.2049 369.551 18.3015C369.423 18.3015 369.278 18.3015 369.149 18.3015C367.103 18.2854 365.057 17.7216 363.012 17.5928C360.772 17.4478 358.517 17.5444 356.278 17.3834C353.991 17.2223 351.704 16.9484 349.432 16.6585C344.874 16.0786 340.331 15.5309 335.757 15.0799C331.069 14.6128 326.398 13.8718 321.694 13.5174C312.722 12.8248 303.637 12.3254 294.649 12.3576C292.345 12.3576 290.042 12.4543 287.755 12.6315C285.483 12.8087 283.212 13.2436 280.941 13.2919C277.268 13.3724 273.644 13.9362 270.068 14.79C269.81 14.8061 269.552 14.8383 269.295 14.8705C267.104 15.1443 265.01 15.4504 262.803 15.3376C260.725 15.2249 258.647 15.3698 256.569 15.2732C254.556 15.1604 252.574 14.9671 250.561 14.9832C246.051 15.0316 241.54 14.9188 237.03 14.9994C232.584 15.0799 228.219 15.4826 223.789 15.8692C223.773 15.8692 223.757 15.8692 223.757 15.8692C222.726 15.8209 221.695 15.6115 220.664 15.4826C218.377 15.2088 215.993 15.3698 213.673 15.3054C209.083 15.1765 204.572 15.6276 200.014 16.2397C190.462 17.5283 180.813 17.3834 171.196 17.3672C161.516 17.3672 151.851 17.2062 142.17 17.335C132.553 17.4639 122.969 17.9632 113.336 17.8827C111.758 17.8827 110.195 17.931 108.617 18.0921C107.618 18.1888 106.603 18.0921 105.62 18.1726C97.9208 17.1256 90.1728 17.9794 82.4409 17.3189C73.1466 16.5457 63.8683 15.692 54.574 14.9832C50.2892 14.6611 45.9562 14.3711 41.6553 14.4839C39.4646 14.5483 37.2739 14.9349 35.0832 15.096C32.5059 15.3054 29.9125 15.3054 27.3191 15.1927C23.0827 14.9832 18.8463 14.5805 14.6098 15.0155C12.4513 15.241 10.3251 15.547 8.1666 15.6276C5.81482 15.7242 3.47915 15.7403 1.15958 16.2236C1.06294 16.2397 0.998504 16.288 0.950179 16.3363C1.64283 16.4008 2.31937 16.5457 2.99591 16.8518C3.10866 16.9162 3.23753 17.1739 3.07645 17.2706C2.49656 17.6089 1.61061 17.7861 1.11126 18.2371C0.434721 18.8492 0.772991 20.3795 0.740774 21.201C0.708558 22.1352 0.547477 23.5205 1.17569 24.2615C1.62672 24.7931 2.1905 24.8575 2.7865 24.9541C3.54358 25.0669 4.23623 25.2441 4.89666 25.679C5.04163 25.7596 5.13828 26.0495 4.92887 26.1139C4.07515 26.42 3.15699 26.4844 2.36769 26.9516C3.67245 27.5153 5.05774 27.7086 6.33028 28.3852C6.45914 28.4657 6.5719 28.7879 6.36249 28.8201C4.9772 29.11 3.55969 28.9651 2.17439 29.1906C2.35158 29.3839 2.52877 29.5772 2.73818 29.7383C2.75428 29.7383 2.77039 29.7705 2.7865 29.8027C3.22142 29.9154 3.68855 29.9638 4.1879 29.8993C4.41342 29.8671 4.44563 29.6899 4.39731 29.5127C4.80001 29.5127 5.20271 29.5127 5.60541 29.5288C6.00812 29.5611 6.41082 29.5772 6.82963 29.5772C8.61763 29.5611 10.4056 29.3517 12.2097 29.3194C12.3708 29.3194 12.4513 29.2389 12.4675 29.11C13.4662 29.0134 14.4649 28.9167 15.4636 28.8362C20.0383 28.4979 24.5807 27.9019 29.1715 27.8053C33.8268 27.6925 38.5948 27.8375 43.2178 28.4979C47.6314 29.1261 52.19 28.8523 56.6197 28.9651C61.1783 29.0778 65.753 28.7879 70.3116 29.0134C74.9668 29.2389 79.5898 29.8188 84.2451 30.0443C88.7553 30.2537 93.2495 30.141 97.7597 30.5437C99.3061 30.6886 100.804 30.7692 102.318 30.7208C102.318 30.737 102.351 30.7692 102.399 30.7692C105.169 30.6081 107.553 30.6403 109.503 30.4792C111.903 30.2859 114.319 30.302 116.735 30.2698C121.6 30.1893 126.448 30.1087 131.313 30.0282C141.235 29.8671 151.158 29.8349 161.081 29.8832C170.729 29.9316 180.378 30.0121 190.011 29.8832C194.763 29.8188 199.514 29.706 204.266 29.6094C209.002 29.5288 213.77 29.5933 218.49 29.1906C220.713 28.9973 222.92 28.7557 225.126 28.514C226.56 28.3852 227.994 28.2402 229.427 28.2241C232.617 28.1758 235.79 28.0147 238.979 27.9019C245.777 27.6764 252.623 27.2898 259.437 27.5314C265.912 27.7731 271.985 29.6094 278.09 31.9773C281.102 33.1371 284.082 34.3291 286.997 35.7627C289.156 36.8097 291.363 37.744 293.473 38.9199C293.473 39.0648 293.521 39.2259 293.634 39.3064C294.391 39.838 295.341 39.9669 295.937 40.7723C296.34 41.3361 296.823 41.481 297.435 41.32H297.323Z" fill="#462B17"/>
<path d="M296.243 40.0317C295.76 39.3552 294.987 39.0169 294.23 38.8397C292.426 37.6316 290.525 36.7457 288.576 35.6986C285.483 34.0556 282.342 32.6864 279.121 31.3817C273 28.9171 266.846 26.8392 260.322 26.4526C253.605 26.0499 246.856 26.5815 240.123 26.7264C233.535 26.8714 226.882 27.2097 220.326 27.999C220.278 27.999 220.246 28.0312 220.213 28.0473C219.118 28.1439 218.039 28.2406 216.943 28.2889C212.191 28.5305 207.407 28.4661 202.656 28.5466C192.83 28.7077 183.004 28.8527 173.162 28.8044C153.8 28.7077 134.454 28.8044 115.076 29.1749C112.869 29.2232 110.662 29.2393 108.472 29.4326C106.909 29.5615 105.218 29.4648 103.655 29.7709C103.526 29.7709 103.414 29.7709 103.285 29.7709C100.965 29.8192 98.7262 29.6098 96.4066 29.3843C91.8803 28.9493 87.3539 29.0782 82.8275 28.8205C78.1723 28.5627 73.5493 27.9829 68.894 27.7896C64.3515 27.5963 59.793 27.8862 55.2344 27.7573C50.7563 27.6285 46.2944 27.6446 41.8325 27.1775C37.4511 26.7264 33.0536 26.5492 28.6722 26.6298C24.0814 26.7103 19.555 27.3385 14.9803 27.7251C12.7574 27.9023 10.5667 28.1117 8.35986 28.4017C8.35986 28.4017 8.34375 28.4017 8.32765 28.4017C7.73165 28.4017 7.15176 28.4178 6.55576 28.4339C5.78257 28.4339 5.00938 28.4661 4.23619 28.4822C4.09122 28.4822 3.93014 28.4822 3.78517 28.4822C3.12474 28.4339 2.48041 28.2084 1.81998 28.2889C1.43339 28.0151 1.0629 27.6768 0.772957 27.1936C-0.000230604 26.0016 -0.0163387 23.9075 0.0158775 22.4739C0.0480936 21.4269 0.225283 20.3476 0.386363 19.3167C0.57966 18.1086 1.11123 17.6254 1.90052 17.1904C6.00808 16.5139 10.2284 16.6428 14.3521 16.1595C18.8623 15.628 23.3887 16.1112 27.9151 16.3528C32.2643 16.5783 36.5168 15.9823 40.8499 15.6924C45.4084 15.3863 50.0637 15.8052 54.6062 16.1434C63.7233 16.82 72.8405 17.5609 81.9416 18.4147C89.1419 19.0912 96.3422 18.5435 103.543 18.7851C105.62 18.8174 109.358 19.1234 110.34 19.0429C112.789 18.8174 115.269 19.0107 117.734 19.0429C122.308 19.1073 126.899 18.8979 131.474 18.7368C141.284 18.3986 151.077 18.3663 160.871 18.4147C170.391 18.463 179.927 18.5757 189.447 18.2375C194.215 18.0764 198.935 17.4482 203.67 16.8361C208.309 16.2401 212.916 16.2723 217.572 16.2723C219.279 16.2723 220.954 16.2884 222.662 16.4656C223.016 16.4978 223.354 16.5139 223.693 16.4978C223.741 16.53 223.789 16.5622 223.838 16.5622C225.867 16.6106 227.881 16.3689 229.91 16.224C232.166 16.0629 234.437 16.0951 236.708 16.0629C241.218 15.9823 245.729 16.0629 250.239 16.0468C252.542 16.0468 254.797 16.2401 257.101 16.3528C259.163 16.4656 261.241 16.2884 263.319 16.385C264.639 16.4495 265.928 16.3367 267.217 16.1273C267.313 16.2401 267.442 16.3206 267.587 16.2884C269.005 16.0307 270.406 15.7407 271.824 15.483C272.967 15.4025 274.111 15.3541 275.239 15.2414C275.4 15.2414 275.351 14.9998 275.255 14.9031C277.043 14.6293 278.847 14.436 280.667 14.3715C285.58 14.2105 290.445 13.4212 295.374 13.4534C300.029 13.4695 304.732 13.6306 309.388 13.8561C314.059 14.0816 318.779 14.3071 323.434 14.7581C332.696 15.6602 341.942 16.82 351.172 17.9153C353.443 18.1891 355.731 18.3986 358.018 18.5113C360.386 18.6402 362.754 18.5113 365.122 18.7529C366.716 18.914 368.247 19.1234 369.825 19.0912C369.857 19.0912 369.89 19.0912 369.906 19.0912C374.19 19.1556 378.475 19.204 382.76 19.365C387.125 19.5422 391.458 20.2832 395.824 20.2349C400.382 20.1866 404.941 19.8483 409.499 19.7355C411.207 19.7033 412.898 19.3328 414.606 19.1395C414.187 19.4134 413.784 19.7033 413.398 20.0094C411.867 21.2497 410.804 23.2632 412.93 24.4552C413.269 24.6485 413.317 24.0847 413.075 23.9075C410.82 22.2645 415.62 19.7838 416.732 19.2201C417.215 18.9623 417.731 18.7368 418.23 18.5113C418.536 18.3986 418.826 18.2697 419.116 18.1247C421.838 16.981 424.689 16.1273 427.412 15.0803C431.487 13.5178 435.482 10.715 439.154 8.18603C440.942 6.96182 442.682 5.65706 444.389 4.28788C445.888 3.07977 447.192 1.64615 448.803 0.615234C448.835 0.631342 448.868 0.647451 448.9 0.647451C449.27 0.679667 449.641 0.695775 449.995 0.727991C449.963 1.66226 449.544 2.41934 449.012 3.16031C448.658 3.65966 448.239 4.11069 448.014 4.67447C443.681 7.44506 440.056 11.2788 436.174 14.7903C434 16.7555 432.099 18.9946 429.796 20.7826C428.797 21.5718 427.863 22.2484 426.735 22.7316C425.495 23.2632 424.335 24.1169 422.998 24.3263C422.627 24.3908 422.917 24.9707 423.207 24.9545C424.174 24.8901 425.028 24.5035 425.913 24.0203C426.977 23.4565 428.136 23.1988 429.183 22.5544C430.166 21.9423 431.116 21.2014 432.035 20.4121C433.355 20.7503 434.692 20.6537 436.029 20.5731C437.93 20.4765 439.847 20.4926 441.748 20.4604C445.356 20.396 448.948 20.3798 452.556 20.1543C456.164 19.9449 459.757 20.2832 463.349 20.0899C466.892 19.9127 470.372 19.1395 473.916 19.2684C473.964 19.3328 474.044 19.3489 474.093 19.2684C474.479 19.2845 474.85 19.3167 475.236 19.3489C475.285 19.3489 475.317 19.3489 475.333 19.3167C475.671 19.4295 475.961 19.5422 476.042 19.5583C477.234 20.0094 477.894 22.49 477.975 23.7787C478.088 25.5344 477.814 27.3708 477.314 29.0299C476.944 30.2863 476.155 30.6246 475.253 30.8018C474.206 30.4957 473.046 30.3991 472.047 30.383C469.937 30.3507 467.827 29.9964 465.717 29.787C461.094 29.3198 456.374 29.4648 451.735 29.191C442.279 28.6272 432.84 28.45 423.368 28.5466C418.649 28.595 414.01 29.1749 409.322 29.4487C404.651 29.7064 399.963 29.497 395.292 29.5292C390.589 29.5615 385.901 29.1426 381.214 29.3682C379.2 29.4648 377.187 29.6259 375.189 29.2715C373.82 29.0138 372.209 28.7561 370.953 29.5776C368.279 29.5453 365.605 29.4487 362.947 29.4004C360.95 29.352 358.968 29.0943 356.987 29.0299C354.845 28.9493 352.686 29.1104 350.544 28.9816C346.259 28.7238 341.942 28.7883 337.673 28.3533C333.324 27.9184 328.975 27.4191 324.61 27.0003C316.089 26.1626 307.648 24.7129 299.143 23.682C295.084 23.1827 291.008 22.6511 286.933 22.6672C284.919 22.6672 282.922 22.7961 280.925 23.1182C279.346 23.3598 277.606 23.6176 276.173 24.4552C273.434 22.2967 270.793 20.557 267.329 20.0416C263.367 19.4617 259.195 19.4778 255.345 20.7664C255.168 20.8309 255.297 21.1208 255.393 21.2014C255.587 21.3463 255.587 21.3302 255.844 21.4108C256.038 21.4752 256.086 21.2819 256.005 21.1369C259.614 20.3476 263.254 20.4926 266.911 20.9758C270.309 21.4269 272.919 23.086 275.561 25.1317C275.609 25.4378 275.915 25.7599 276.189 25.6311C276.608 25.9532 277.01 26.2915 277.429 26.6298C280.458 29.0943 283.969 30.6407 287.384 32.2193C290.879 33.8301 294.455 35.6664 296.711 39.2746C296.775 39.3874 296.872 39.4357 296.952 39.4679C296.952 39.4679 296.952 39.4679 296.952 39.484C297.194 40.2733 296.678 40.4666 296.26 39.8867L296.243 40.0317Z" fill="#7C4E31"/>
<g style="mix-blend-mode:multiply">
<path d="M255.989 21.5067C256.408 21.3295 256.843 21.1684 257.262 21.0234C256.827 21.0879 256.408 21.1684 255.973 21.2651C256.022 21.3456 256.022 21.4422 255.973 21.5067H255.989Z" fill="#7C4E31"/>
</g>
<g style="mix-blend-mode:multiply" opacity="0.6">
<path d="M448.481 1.91856C448.722 1.83802 449.093 2.35348 448.803 2.51456C442.44 6.01001 437.318 11.6156 431.712 16.4158C426.703 20.7167 421.145 24.9531 414.783 25.6619C417.134 26.9988 420.71 26.129 422.998 25.227C423.143 25.1625 423.304 25.0981 423.449 25.0498C423.384 25.0498 423.304 25.0659 423.239 25.0659C422.949 25.082 422.66 24.5021 423.03 24.4377C424.367 24.2444 425.527 23.3745 426.767 22.843C427.911 22.3597 428.829 21.6671 429.828 20.8939C432.115 19.1059 434.032 16.8669 436.206 14.9017C440.089 11.3901 443.713 7.55639 448.046 4.7858C448.271 4.22202 448.69 3.75488 449.045 3.27164C449.576 2.51456 449.995 1.77359 450.027 0.839319C449.657 0.807103 449.286 0.790995 448.932 0.758779C448.9 0.758779 448.867 0.742671 448.835 0.726562C447.949 1.29035 447.144 1.98299 446.371 2.69175C447.063 2.41791 447.772 2.14407 448.481 1.91856Z" fill="#A86A46"/>
</g>
<g style="mix-blend-mode:multiply" opacity="0.6">
<path d="M296.936 40.2577C293.811 37.5998 290.09 35.9729 286.563 34.1527C281.762 31.6882 277.252 28.7243 272.339 26.5175C269.794 25.3738 267.217 24.2301 264.575 23.4247C261.837 22.5871 259.227 22.8126 256.44 23.1348C254.298 23.3925 252.172 23.6019 250.046 23.1348C247.919 22.6677 245.841 21.9428 243.699 21.8623C241.073 22.716 238.254 22.6677 235.532 22.8287C231.038 23.1026 226.56 23.6664 222.082 24.053C213.029 24.8261 203.944 23.7469 194.875 24.2301C190.526 24.4557 186.064 24.7617 181.747 23.8919C177.269 22.9898 172.807 21.4757 168.233 21.3951C163.497 21.3146 159.132 23.167 154.573 24.2785C152.447 24.7939 150.304 24.9872 148.146 25.1483C148.13 25.1805 148.081 25.1966 148.049 25.2127C145.359 26.0504 142.54 26.0342 139.77 26.0826C136.725 26.147 133.697 26.5175 130.652 26.5497C127.189 26.5819 123.758 26.1792 120.311 25.9376C117.025 25.7121 113.723 25.5832 110.437 25.4544C103.736 25.1966 96.9865 24.1818 90.2856 24.5201C86.8707 24.6973 83.5363 24.955 80.1214 24.6328C77.2864 24.3751 74.4513 23.9885 71.6163 23.7791C69.8927 23.8113 68.1208 23.4731 66.4295 23.3281C62.8535 23.022 59.2775 23.3925 55.7176 23.7308C48.8717 24.3912 42.2191 23.763 35.4053 23.0381C31.8455 22.6677 28.1728 22.1844 24.5968 22.4905C21.1336 22.7804 17.7831 23.8919 14.3521 24.4395C9.7935 25.1805 4.83221 24.6167 0.257515 25.6799C0.370272 26.2437 0.54746 26.7752 0.80519 27.1779C1.11124 27.6451 1.46562 27.9994 1.85221 28.2733C2.51265 28.1927 3.15697 28.4021 3.8174 28.4666C3.96237 28.4666 4.12345 28.4666 4.26843 28.4666C5.04161 28.4666 5.8148 28.4343 6.58799 28.4182C7.18399 28.4182 7.76388 28.4021 8.35988 28.386C8.35988 28.386 8.37599 28.386 8.39209 28.386C10.5989 28.1122 12.8057 27.9028 15.0125 27.7095C19.5872 27.339 24.1136 26.6947 28.7044 26.6141C33.1019 26.5336 37.4994 26.7108 41.8647 27.1618C46.3427 27.6289 50.7886 27.6128 55.2666 27.7417C59.8252 27.8706 64.3677 27.5806 68.9263 27.7739C73.5815 27.9672 78.2045 28.5471 82.8597 28.8048C87.3861 29.0626 91.9125 28.9337 96.4389 29.3686C98.7423 29.5941 100.997 29.8035 103.317 29.7552C103.446 29.7552 103.559 29.7552 103.687 29.7552C105.266 29.4492 106.941 29.5458 108.504 29.4169C110.711 29.2236 112.901 29.2075 115.108 29.1592C134.47 28.7887 153.816 28.6921 173.194 28.7887C183.02 28.8371 192.846 28.7082 202.688 28.531C207.44 28.4505 212.224 28.531 216.976 28.2733C218.071 28.2088 219.15 28.1283 220.246 28.0316C220.278 27.9994 220.31 27.9833 220.358 27.9833C226.914 27.1779 233.567 26.8558 240.155 26.7108C246.872 26.5658 253.622 26.0342 260.355 26.4369C266.878 26.8235 273.032 28.9015 279.153 31.366C282.374 32.6547 285.516 34.0239 288.608 35.683C290.557 36.73 292.458 37.5998 294.262 38.8241C295.019 39.0013 295.792 39.3395 296.276 40.0161C296.533 40.3704 296.84 40.4349 296.968 40.2416L296.936 40.2577Z" fill="#A86A46"/>
</g>
<g style="mix-blend-mode:multiply">
<path d="M448.98 0.920363C447.788 3.40101 445.018 4.89906 443.004 6.33268C439.976 8.50727 437.35 11.2618 434.58 13.8229C431.632 16.5613 428.523 19.0097 424.979 20.6367C421.822 22.0864 418.536 23.0045 415.185 23.6489C417.296 25.9362 420.082 25.7107 422.869 24.5992C422.869 24.5187 422.933 24.4543 423.03 24.4382C423.175 24.4221 423.32 24.3898 423.449 24.3415C426.107 23.1656 428.7 21.2649 430.633 20.0729C430.697 20.0407 430.762 20.0407 430.826 20.0729C432.695 18.446 434.354 16.5774 436.206 14.9183C440.089 11.4067 443.713 7.573 448.046 4.80241C448.271 4.23863 448.69 3.77149 449.045 3.28825C449.576 2.53117 449.995 1.7902 450.027 0.855931C449.673 0.823715 449.335 0.807607 448.98 0.775391C448.98 0.823715 448.98 0.888147 448.98 0.936471V0.920363Z" fill="#7C4E31"/>
</g>
<g style="mix-blend-mode:multiply">
<path d="M477.363 24.3892C477.508 24.5825 477.411 24.8402 477.202 24.8563C474.157 24.9691 471.435 26.7732 468.407 26.9181C466.716 26.9987 465.04 26.596 463.365 26.4188C461.545 26.2255 459.741 26.0805 457.92 26.0161C450.205 25.7422 442.586 26.6443 434.886 27.3208C427.315 27.9813 419.857 27.3208 412.286 27.0792C404.828 26.8215 397.37 27.1436 389.928 26.902C388.946 27.0148 387.915 26.8376 386.9 26.7732C384.387 26.6121 381.858 26.596 379.329 26.4349C374.013 26.1127 368.714 25.7906 363.414 25.5973C352.461 25.2268 341.491 24.8241 330.634 22.9878C330.344 22.9394 330.103 22.3757 330.522 22.3434C331.553 22.2951 332.487 22.0696 333.405 21.6186C326.704 18.993 319.568 20.2655 312.642 20.1044C309.017 20.0239 305.296 19.6212 301.753 18.6708C299.063 17.9459 295.535 16.4962 292.829 17.8493C293.763 18.5903 294.794 19.0735 295.873 19.4923C295.922 19.4762 295.986 19.4601 296.034 19.4279C296.276 19.3312 296.518 19.7178 296.421 19.9272C296.453 20.1205 296.389 20.2977 296.147 20.2172C296.099 20.2011 296.05 20.185 296.002 20.1527C293.087 21.1514 289.978 20.4105 287.014 20.04C283.083 19.5406 279.072 19.7823 275.142 20.2011C271.035 20.636 266.283 19.2185 262.014 19.7823C263.786 19.75 265.542 19.895 267.281 20.1527C270.745 20.6521 273.402 22.3918 276.125 24.5664C277.574 23.7448 279.314 23.4871 280.877 23.2294C282.874 22.9233 284.871 22.7945 286.885 22.7784C290.976 22.7622 295.036 23.3099 299.095 23.7932C307.6 24.8241 316.041 26.2738 324.562 27.1114C328.911 27.5463 333.26 28.0296 337.625 28.4645C341.91 28.8994 346.211 28.835 350.496 29.0927C352.638 29.2216 354.797 29.0605 356.939 29.141C358.936 29.2216 360.902 29.4793 362.899 29.5115C365.557 29.576 368.247 29.6565 370.905 29.6887C372.161 28.8672 373.772 29.141 375.141 29.3827C377.138 29.7532 379.152 29.576 381.165 29.4793C385.869 29.2699 390.557 29.6726 395.244 29.6404C399.915 29.6082 404.603 29.8176 409.274 29.5599C413.978 29.3021 418.617 28.7061 423.32 28.6578C432.792 28.5612 442.231 28.7545 451.687 29.3021C456.326 29.576 461.029 29.431 465.668 29.8981C467.779 30.1075 469.889 30.4619 471.999 30.4941C473.014 30.5102 474.157 30.6069 475.204 30.9129C476.107 30.7357 476.896 30.4136 477.266 29.141C477.766 27.4819 478.04 25.6456 477.927 23.8898C477.862 22.9717 477.508 21.4414 476.88 20.4749C475.076 20.2172 473.255 19.9755 471.451 20.2977C473.352 21.7474 475.672 22.3595 477.282 24.3247L477.363 24.3892Z" fill="#7C4E31"/>
</g>
<g style="mix-blend-mode:multiply">
<path d="M296.984 40.1286C294.262 38.7433 291.685 37.0359 289.059 35.3768C287.432 34.3458 285.805 33.331 284.098 32.5095C282.326 31.6397 280.49 30.9793 278.75 30.045C275.238 28.1442 271.824 25.2931 268.07 24.085C264.543 22.9574 260.822 22.9735 257.181 23.2313C253.17 23.5051 249.176 23.6984 245.149 23.4568C240.993 23.199 236.885 22.3936 232.713 22.4742C228.557 22.5547 224.434 23.1507 220.294 23.3118C218.458 23.3923 216.621 23.3762 214.801 23.4085C211.95 24.2944 208.97 24.536 206.022 24.6649C202.736 24.8099 199.466 25.0676 196.18 25.1965C188.754 25.4864 181.554 24.8099 174.225 23.5695C170.568 22.9574 166.847 22.3453 163.142 22.3936C159.389 22.442 155.684 23.0541 151.979 23.7145C148.42 24.3588 144.86 25.0676 141.251 25.277C137.74 25.4864 134.212 25.3897 130.701 25.4381C130.636 25.4381 130.572 25.4059 130.523 25.3575C125.772 25.2609 121.036 25.5025 116.284 25.6636C110.839 25.8408 105.443 25.4703 99.9987 25.3736C94.6025 25.2931 89.2063 25.7119 83.8101 25.5992C83.4396 25.5992 83.0691 25.5669 82.7147 25.5508C82.7147 25.6636 82.6503 25.728 82.5053 25.7119C75.8366 24.9548 69.1356 24.7293 62.4346 24.5521C58.9875 24.4555 55.5565 24.3588 52.1094 24.0689C48.8555 23.8112 45.6178 23.4246 42.3479 23.3923C38.8202 23.3762 35.3086 23.6179 31.7971 23.7306C28.5432 23.8434 25.2894 23.5212 22.0517 23.6501C15.8823 23.8917 9.72899 25.6153 3.5596 24.3749C3.38241 24.3427 3.173 24.0045 3.33409 23.8273C3.93008 23.1507 4.70327 22.8447 5.41203 22.3775C3.94619 22.2326 1.54609 21.8782 2.10987 20.1707C2.65755 18.5277 4.86435 17.7545 6.153 17.2068C6.63624 16.9974 7.13559 16.8041 7.63494 16.627C5.71808 16.7397 3.80122 16.8686 1.90047 17.1907C1.11117 17.6095 0.579604 18.0928 0.386307 19.317C0.225226 20.3479 0.0480373 21.4272 0.0158211 22.4742C-0.0325031 23.8917 -0.016395 26.0019 0.756793 27.21C1.06285 27.6771 1.41722 28.0315 1.80382 28.3053C2.46425 28.2248 3.10857 28.4342 3.769 28.4986C3.91398 28.4986 4.07506 28.4986 4.22003 28.4986C4.99322 28.4986 5.76641 28.4664 6.53959 28.4503C7.13559 28.4503 7.71548 28.4342 8.31148 28.4181C8.31148 28.4181 8.32759 28.4181 8.3437 28.4181C10.5505 28.1442 12.7573 27.9348 14.9641 27.7415C19.5388 27.371 24.0652 26.7267 28.656 26.6462C33.0535 26.5656 37.451 26.7428 41.8163 27.1939C46.2943 27.661 50.7402 27.6449 55.2182 27.7737C59.7768 27.9026 64.3193 27.6127 68.8779 27.806C73.5331 27.9993 78.1561 28.5791 82.8114 28.8369C87.3377 29.0946 91.8641 28.9657 96.3905 29.4007C98.6939 29.6262 100.949 29.8356 103.269 29.7873C103.397 29.7873 103.51 29.7873 103.639 29.7873C105.218 29.4812 106.893 29.5779 108.455 29.449C110.662 29.2557 112.853 29.2396 115.06 29.1913C134.422 28.8208 153.767 28.7241 173.145 28.8208C182.971 28.8691 192.797 28.7402 202.639 28.563C207.391 28.4825 212.175 28.563 216.927 28.3053C218.023 28.2409 219.102 28.1603 220.197 28.0637C220.229 28.0315 220.262 28.0154 220.31 28.0154C226.866 27.21 233.519 26.8878 240.107 26.7428C246.824 26.5979 253.573 26.0663 260.306 26.469C266.83 26.8556 272.983 28.9335 279.104 31.3981C282.326 32.6867 285.467 34.0559 288.56 35.715C290.509 36.7621 292.41 37.6319 294.214 38.8561C294.971 39.0333 295.744 39.3716 296.227 40.0481C296.533 40.4669 296.904 40.483 296.968 40.1286H296.984Z" fill="#7C4E31"/>
</g>
<g style="mix-blend-mode:multiply">
<path d="M448.014 1.29102C446.757 2.24139 445.662 3.38507 444.422 4.38377C443.826 4.8509 443.23 5.31804 442.617 5.78517C444.454 4.56096 446.741 3.22399 448.014 1.30712V1.29102Z" fill="#7C4E31"/>
</g>
<g style="mix-blend-mode:multiply" opacity="0.4">
<path d="M432.437 18.2688C434.918 15.917 437.124 13.2108 439.686 10.9718C442.424 8.58781 445.323 6.41322 448.191 4.27085C448.303 4.19031 448.175 3.9809 448.062 4.04533C445.678 5.59171 443.455 7.49246 441.2 9.28046C438.671 11.294 436.206 13.3236 433.919 15.7076C429.441 20.4111 423.304 25.4691 416.844 24.6315C416.474 24.5831 416.619 25.1791 416.909 25.2275C422.563 26.1295 428.249 22.1991 432.421 18.2688H432.437Z" fill="#321B08"/>
<path d="M430.665 16.723C432.55 15.676 434.322 14.3229 436.013 12.9215C439.944 9.68376 443.761 6.3816 448.046 3.7882C448.175 3.70766 448.03 3.48215 447.917 3.54658C443.938 5.54398 440.411 8.45955 436.899 11.359C435.047 12.8893 433.194 14.4034 431.181 15.676C429.328 16.8519 427.412 17.6573 425.43 18.4788C425.35 18.511 425.43 18.6882 425.511 18.656C427.267 18.1083 429.022 17.6573 430.665 16.7391V16.723Z" fill="#321B08"/>
<path d="M415.008 24.454C414.751 24.2929 414.509 24.1479 414.283 23.9224C413.736 23.3425 414.155 22.5532 414.557 22.0861C414.912 21.6512 415.363 21.2968 415.798 20.9424C415.443 21.3129 415.169 21.7478 415.105 22.2633C415.008 23.1654 416.136 23.4392 416.667 23.4553C416.925 23.4553 416.861 23.0848 416.667 23.0204C416.313 22.9076 415.137 22.6499 416.072 21.619C416.555 21.0713 417.312 20.7008 417.908 20.3464C419.116 19.6216 420.485 19.1705 421.79 18.6873C424.512 17.6725 427.17 16.8832 429.812 15.6268C429.924 15.5784 429.812 15.3851 429.699 15.4335C425.865 17.0121 421.838 17.8175 418.053 19.5571C417.505 19.8149 416.748 20.1692 416.12 20.6686C416.136 20.5881 416.039 20.4753 415.975 20.5236C415.105 21.1518 413.897 21.6351 413.623 22.8915C413.414 23.8258 414.203 24.7601 414.976 24.8406C415.169 24.8567 415.153 24.5829 415.024 24.5023L415.008 24.454Z" fill="#321B08"/>
<path d="M426.22 20.8458C428.346 19.8793 430.666 18.494 432.454 16.851C432.534 16.7705 432.389 16.6094 432.309 16.6899C428.797 19.6377 424.335 21.3452 420.083 22.07C419.873 22.1022 420.002 22.4566 420.163 22.4566C422.16 22.5372 424.367 21.6995 426.22 20.8458Z" fill="#321B08"/>
<path d="M442.199 23.3111C445.92 23.3111 449.641 23.2467 453.362 23.1017C456.857 22.9567 460.369 22.5057 463.864 22.4412C467.343 22.3768 470.936 22.6345 474.399 22.2157C474.544 22.1996 474.431 21.958 474.318 21.9741C470.823 22.1835 467.247 21.958 463.751 21.8936C460.401 21.8452 457.034 22.1674 453.684 22.2802C450.188 22.3929 446.693 22.5862 443.214 22.8117C439.525 23.0695 435.836 23.0211 432.147 23.2144C432.018 23.2144 432.099 23.4722 432.196 23.4722C435.53 23.5688 438.864 23.3272 442.183 23.3272L442.199 23.3111Z" fill="#321B08"/>
<path d="M434.998 22.6343C437.608 22.3927 440.233 22.1833 442.859 22.1189C442.939 22.1189 442.875 21.9739 442.811 21.9739C437.93 21.9578 432.952 22.0867 428.12 22.9404C427.911 22.9726 428.039 23.3109 428.201 23.327C430.423 23.5525 432.775 22.8599 434.998 22.6505V22.6343Z" fill="#321B08"/>
<path d="M425.043 27.8045C430.214 27.3857 435.433 27.1602 440.604 27.1441C446.032 27.1119 451.461 26.7253 456.889 26.8864C462.06 27.0475 467.279 27.5307 472.45 27.5468C472.611 27.5468 472.514 27.2408 472.385 27.2408C469.872 27.1924 467.376 26.8381 464.879 26.6931C462.205 26.5481 459.515 26.4837 456.841 26.3709C451.735 26.1615 446.644 26.4998 441.538 26.5159C436.319 26.532 431.084 26.6286 425.865 26.983C423.384 27.1602 420.92 27.3374 418.439 27.3696C415.959 27.4018 413.397 27.7884 410.933 27.3374C410.659 27.2891 410.788 27.7079 410.981 27.7562C413.107 28.32 415.379 27.9173 417.537 27.9173C420.05 27.9173 422.531 27.9978 425.043 27.7884V27.8045Z" fill="#321B08"/>
<path d="M469.953 24.5351C470.066 24.5351 469.985 24.3418 469.888 24.3418C465.733 24.3418 461.577 24.5995 457.421 24.8411C453.168 25.0828 448.916 25.115 444.663 25.2277C444.502 25.2277 444.631 25.5016 444.744 25.5016C453.168 25.566 461.528 24.7606 469.937 24.5351H469.953Z" fill="#321B08"/>
<path d="M383.034 22.5547C386.288 22.3775 389.541 22.5869 392.795 22.3936C395.695 22.2164 398.61 22.2164 401.51 22.2325C404.586 22.2325 407.582 21.9103 410.643 21.6848C410.788 21.6848 410.675 21.4593 410.562 21.4593C407.502 21.4271 404.441 21.7493 401.381 21.6365C398.433 21.5237 395.469 21.411 392.521 21.5721C389.509 21.7331 386.497 21.9103 383.485 22.1197C380.231 22.3453 376.993 22.313 373.739 22.4097C373.514 22.4097 373.691 22.7963 373.868 22.7963C376.929 22.8285 379.989 22.7157 383.05 22.5547H383.034Z" fill="#321B08"/>
<path d="M402.202 27.7738C404.264 27.5966 406.374 27.5161 408.404 27.0006C409.467 26.7268 410.546 26.2435 411.142 25.1321C411.174 25.0676 411.142 24.9549 411.126 24.9066C410.691 24.2783 409.934 24.1978 409.29 24.0206C407.469 23.5213 405.601 23.2958 403.748 23.1669C400.35 22.9253 396.903 22.732 393.504 23.1669C389.863 23.6501 386.287 24.4716 382.631 24.8582C379.103 25.2448 375.527 25.6475 371.983 25.712C371.71 25.712 371.919 26.2113 372.144 26.2113C379.184 26.0986 386.158 24.8743 393.101 23.779C396.822 23.183 400.607 23.4568 404.344 23.6985C406.02 23.8112 407.679 24.085 409.322 24.4878C410.031 24.6488 410.933 24.7294 410.272 25.4865C409.531 26.3563 408.243 26.5496 407.26 26.7429C404.071 27.4194 400.511 27.661 397.273 27.4839C396.516 27.4355 395.759 27.4033 394.986 27.3228C394.647 27.2906 394.325 27.2583 393.987 27.2261C393.842 27.2261 391.684 26.6623 392.36 26.1952C393.472 25.4059 395.034 25.277 396.452 25.1965C395.791 25.3254 395.115 25.5348 394.68 25.9214C394.551 26.0341 394.712 26.2274 394.792 26.2919C395.711 26.8395 397.031 26.614 398.046 26.6462C399.27 26.6785 400.479 26.6623 401.703 26.5496C403.024 26.4207 404.361 26.2274 405.681 26.1147C406.068 26.0825 406.664 26.0019 406.938 25.6314C407.002 25.5509 407.002 25.4542 406.97 25.3576C406.68 24.4394 405.247 24.7133 404.618 24.6488C402.492 24.4233 400.398 24.5039 398.256 24.6488C396.323 24.7777 394.357 24.7777 392.505 25.5026C392.151 25.6475 390.975 26.3885 391.796 26.9362C393.069 27.7899 394.728 27.7094 396.145 27.8543C398.159 28.0637 400.205 27.9671 402.218 27.806L402.202 27.7738ZM403.571 25.0515C404.409 25.1482 405.263 25.2126 406.1 25.2932C406.696 25.3415 405.52 25.5026 405.359 25.5187C403.732 25.6636 402.122 25.9214 400.495 26.0825C399.641 26.163 398.803 26.163 397.95 26.163C397.241 26.163 396.065 26.2919 395.243 26.0502C396.065 25.5509 397.482 25.4542 398.288 25.3898C399.689 25.277 401.091 25.422 402.476 25.5992C402.589 25.6153 402.54 25.422 402.46 25.4059C401.332 25.1965 400.237 25.0515 399.109 25.0354C400.591 24.9388 402.105 24.9066 403.555 25.0676L403.571 25.0515Z" fill="#321B08"/>
<path d="M400.72 29.448C404.119 29.448 407.534 28.9809 410.933 28.9487C411.062 28.9487 410.965 28.707 410.852 28.707C407.453 28.7715 404.022 29.0614 400.624 28.997C399.222 28.9648 397.853 28.8198 396.452 28.8359C395.678 28.8359 394.889 28.8681 394.116 29.0131C393.359 29.1581 392.634 28.8842 391.877 28.9325C391.7 28.9325 391.812 29.2547 391.941 29.2708C393.182 29.448 394.325 29.448 395.566 29.3836C397.289 29.2869 398.997 29.4641 400.704 29.4641L400.72 29.448Z" fill="#321B08"/>
<path d="M360.225 27.3704C360.37 27.3866 360.305 27.161 360.193 27.1288C356.907 26.5006 353.443 27.0161 350.125 26.8067C346.356 26.565 342.57 26.3717 338.817 25.8402C335.241 25.3247 331.714 24.6965 328.121 24.2777C326.205 24.0683 324.288 23.8267 322.371 23.6173C326.124 23.7783 329.877 24.0361 333.63 24.1488C333.792 24.1488 333.743 23.8911 333.598 23.875C329.168 23.5689 324.755 23.1179 320.325 22.8602C315.734 22.5863 311.16 22.6508 306.617 21.7004C302.381 20.8145 298.305 19.8802 293.988 19.5902C289.639 19.3003 285.274 19.3325 280.941 19.6869C280.78 19.6869 280.909 19.9446 281.021 19.9446C285.564 19.848 290.09 19.8802 294.617 20.2507C298.918 20.5889 303.009 21.6682 307.229 22.5541C310.37 23.2146 313.56 23.3595 316.749 23.4401C320.325 23.9878 323.966 24.2294 327.558 24.6482C331.359 25.0992 335.064 25.9368 338.849 26.5328C342.409 27.0966 346.018 27.2094 349.594 27.3704C353.089 27.5315 356.729 26.8872 360.193 27.3704H360.225Z" fill="#321B08"/>
<path d="M333.791 21.2812C335.128 20.959 332.889 19.5093 332.631 19.3965C331.133 18.7361 329.587 18.1884 327.992 17.7213C327.992 17.6408 327.928 17.5441 327.847 17.5119C326.559 17.1897 325.27 16.9642 323.981 16.8193C321.565 16.4166 319.133 16.2716 316.765 16.4166C316.475 16.4327 316.7 16.9159 316.926 16.9159C317.329 16.9159 317.731 16.9159 318.134 16.9159C322.693 16.9481 327.396 17.8824 331.665 19.606C332.1 19.7831 332.519 19.9764 332.954 20.1697C334.226 20.7335 332.325 20.8624 332.213 20.8785C330.94 21.0557 329.667 21.1523 328.395 21.2007C325.769 21.2973 323.128 21.249 320.518 21.1201C315.573 20.8624 310.708 20.0248 305.811 19.2838C303.331 18.9133 300.834 18.5911 298.353 18.2851C297.322 18.1562 296.292 18.0113 295.261 17.8824C294.455 17.7857 293.601 17.7857 292.78 17.6408C293.634 17.4797 294.552 17.4314 295.389 17.3347C296.871 17.1575 298.353 16.9642 299.835 16.8354C302.751 16.5615 305.634 16.3521 308.534 16.5776C311.369 16.8031 314.204 17.2381 317.007 17.8018C318.327 18.0596 319.632 18.3817 320.937 18.6717C321.919 18.8811 323.369 18.9294 324.465 19.316C323.418 19.461 322.258 19.3804 321.243 19.4771C319.246 19.6704 317.2 19.4932 315.202 19.2838C313.35 19.0905 311.498 19.01 309.661 18.7361C309.291 18.6717 308.92 18.6234 308.55 18.5589C310.434 17.9629 312.512 18.2045 314.429 18.269C314.606 18.269 314.542 17.9951 314.397 17.979C312.351 17.7857 309.742 17.2703 307.825 18.3173C307.777 18.3495 307.744 18.3817 307.744 18.4301C306.552 18.2207 305.344 18.0274 304.136 17.9951C303.943 17.9951 304.023 18.2851 304.168 18.3012C307.873 18.6395 311.562 19.4288 315.267 19.8476C316.942 20.0248 318.633 20.1053 320.325 20.0892C321.919 20.0731 323.82 20.1858 325.367 19.767C325.592 19.7026 325.528 19.3804 325.367 19.2677C324.722 18.8005 323.852 18.7361 323.111 18.6072C321.42 18.3012 319.745 17.7857 318.07 17.3991C314.896 16.6904 311.691 16.1588 308.469 15.9011C305.505 15.6595 302.59 15.9333 299.642 16.2394C298.16 16.4004 296.694 16.626 295.212 16.8031C294.02 16.9481 292.716 16.9964 291.572 17.4153C291.33 17.5119 291.54 17.8824 291.685 17.9468C293.714 18.7522 296.275 18.6395 298.418 18.9133C301.478 19.2838 304.539 19.6865 307.583 20.1697C313.447 21.104 319.294 21.8933 325.222 21.9416C328.041 21.9577 331.037 22.0705 333.807 21.3778L333.791 21.2812Z" fill="#321B08"/>
<path d="M225.738 19.5577C228.267 18.6074 230.893 19.2195 233.486 19.2195C236.45 19.2195 239.414 19.1067 242.378 19.2195C244.971 19.3 247.565 19.2356 250.158 19.2034C252.945 19.155 255.699 18.6557 258.486 18.6074C261.305 18.5429 264.156 17.8986 266.959 17.5281C269.81 17.1415 272.677 16.9482 275.528 16.61C281.633 15.869 287.77 15.4341 293.924 15.6918C294.085 15.6918 294.02 15.4341 293.892 15.418C288.077 14.9186 282.278 15.3052 276.479 15.869C273.595 16.1428 270.696 16.32 267.829 16.6744C264.816 17.0449 261.836 17.6409 258.824 17.9147C252.961 18.4463 247.098 18.704 241.218 18.3819C238.367 18.2208 235.5 18.3496 232.649 18.4946C230.313 18.6074 227.784 18.3657 225.561 19.3161C225.416 19.3806 225.577 19.6383 225.722 19.59L225.738 19.5577Z" fill="#321B08"/>
<path d="M249.321 17.4318C249.482 17.4641 249.417 17.2063 249.288 17.1741C246.212 16.4976 243.103 16.9808 239.994 16.8197C237.127 16.6748 234.066 16.256 231.231 16.9647C231.038 17.013 231.183 17.303 231.328 17.2869C234.405 16.9969 237.433 17.0936 240.526 17.2385C243.457 17.3835 246.389 16.8681 249.305 17.4318H249.321Z" fill="#321B08"/>
<path d="M277.187 28.9652C277.381 29.0458 277.364 28.7558 277.22 28.6753C273.724 26.9356 270.454 24.8416 266.781 23.5368C263.012 22.2159 258.937 23.6012 255.087 23.5207C253.106 23.4724 251.124 23.5851 249.159 23.424C246.92 23.2469 244.681 22.6347 242.41 22.4737C238.174 22.1676 234.034 22.3126 229.813 22.5059C229.685 22.5059 229.781 22.7153 229.878 22.7153C234.098 22.7153 238.254 22.6831 242.474 23.0213C244.552 23.1824 246.614 23.5368 248.66 24.02C250.625 24.4711 252.687 24.3261 254.684 24.3422C256.456 24.3744 258.18 24.3905 259.936 24.0845C262.046 23.7301 264.156 23.6173 266.25 24.1167C270.068 25.0026 273.563 27.4027 277.171 28.9491L277.187 28.9652Z" fill="#321B08"/>
<path d="M293.908 37.5993C292.877 36.665 291.991 35.9563 290.783 35.4086C289.285 34.7321 288.012 33.6045 286.53 32.8958C285.048 32.187 283.55 31.5427 282.101 30.7534C280.377 29.8191 278.798 28.6593 277.123 27.6123C274.465 25.9532 271.888 24.0524 269.005 23.0054C266.283 22.0067 263.125 21.9262 260.323 22.4738C260.194 22.506 260.29 22.7155 260.387 22.6993C263.512 22.1678 266.911 22.4738 269.875 23.8108C271.437 24.5196 272.838 25.5505 274.272 26.5653C275.529 27.4673 276.866 28.16 278.138 29.0298C280.683 30.7695 283.212 31.9454 286.015 33.0246C287.416 33.5723 288.576 34.5066 289.897 35.2314C291.314 36.0207 292.555 36.7134 293.827 37.8087C293.972 37.9376 294.037 37.696 293.924 37.5832L293.908 37.5993Z" fill="#321B08"/>
<path d="M289.559 22.0065C289.687 22.0065 289.607 21.7487 289.51 21.7487C286.144 21.7004 282.761 21.7004 279.394 21.5554C276.012 21.4105 272.629 20.7823 269.262 20.3796C269.069 20.3634 269.15 20.6534 269.295 20.6856C272.629 21.4266 276.06 22.0065 279.459 22.1675C282.809 22.3286 286.208 22.1031 289.559 22.0065Z" fill="#321B08"/>
<path d="M263.56 19.6378C265.074 19.6539 266.54 20.0727 268.07 20.0566C271.485 19.9921 274.755 18.8646 278.138 18.6069C278.283 18.6069 278.17 18.3652 278.057 18.3652C274.82 18.4458 271.614 19.2029 268.376 19.3156C266.701 19.3639 265.074 19.0096 263.415 18.9934C261.74 18.9773 260 19.3156 258.357 19.5894C258.212 19.6217 258.325 19.8472 258.438 19.8472C260.145 19.7505 261.853 19.6378 263.56 19.67V19.6378Z" fill="#321B08"/>
<path d="M273.805 28.8043C272.194 28.0312 270.841 27.258 269.101 26.8714C267.023 26.4042 265.074 26.066 262.964 25.9049C258.728 25.5988 254.556 25.2606 250.303 25.631C245.89 26.0176 241.412 25.7599 236.998 25.8566C232.343 25.9532 227.72 26.5492 223.064 26.6298C222.839 26.6298 222.984 27.0486 223.161 27.0647C227.446 27.419 231.715 26.6298 235.983 26.4042C240.268 26.1787 244.585 26.1304 248.87 26.1304C251.028 26.1304 253.187 25.9371 255.361 25.9693C257.552 26.0015 259.743 26.3237 261.949 26.4687C264.076 26.5975 266.121 26.662 268.215 27.1452C269.311 27.4029 270.406 27.5479 271.485 27.8862C272.307 28.1439 273.016 28.6916 273.805 29.0299C273.966 29.0943 273.966 28.8366 273.837 28.7882L273.805 28.8043Z" fill="#321B08"/>
<path d="M226.785 22.8446C227.075 22.7802 228.509 22.6835 228.444 22.0553C228.267 20.4123 223.306 21.3466 222.662 21.3466C222.533 21.3466 222.613 21.5882 222.71 21.5882C223.934 21.6848 225.158 21.556 226.366 21.6848C226.64 21.717 227.72 22.0553 227.881 21.9587C227.365 22.313 226.511 22.3292 225.915 22.4902C224.611 22.8285 223.306 23.1507 221.985 23.4084C221.743 23.4567 221.921 23.8433 222.114 23.8272C223.692 23.6983 225.223 23.1668 226.785 22.8446Z" fill="#321B08"/>
<path d="M222.05 22.7479C222.372 22.5385 222.887 22.6352 223.225 22.6674C223.66 22.6996 224.111 22.7318 224.53 22.5224C224.723 22.4258 224.514 22.1036 224.353 22.1197C223.805 22.168 223.258 22.1842 222.71 22.2164C222.42 22.2325 222.098 22.2486 221.872 22.4902C221.76 22.603 221.953 22.8285 222.066 22.764L222.05 22.7479Z" fill="#321B08"/>
<path d="M349.368 24.5831C345.035 23.9066 340.605 23.3589 336.353 22.1186C336.224 22.0864 336.256 22.2958 336.353 22.3441C340.412 24.0193 345.115 24.6798 349.384 24.8731C349.561 24.8731 349.497 24.6153 349.352 24.5992L349.368 24.5831Z" fill="#321B08"/>
<path d="M347.677 21.9096C343.07 20.8626 338.511 19.3806 333.952 18.0759C333.743 18.0114 333.791 18.3819 333.952 18.4463C338.414 19.9927 343.07 21.3619 347.693 22.1029C347.822 22.119 347.757 21.9257 347.677 21.9096Z" fill="#321B08"/>
<path d="M149.982 23.021C155.765 22.6988 161.483 21.8773 167.282 21.8934C170.488 21.8934 173.661 22.135 176.85 22.3766C179.83 22.6022 182.827 22.6344 185.823 22.8438C185.968 22.8438 185.919 22.6183 185.79 22.6183C179.992 21.9901 174.096 21.4585 168.281 21.3296C162.45 21.2008 156.683 21.7484 150.884 22.2639C138.771 23.327 126.674 22.2639 114.561 22.1028C114.222 22.1028 114.351 22.6344 114.625 22.6666C120.504 23.1821 126.464 23.3109 132.36 23.5686C138.223 23.8264 144.135 23.3431 149.982 23.021Z" fill="#321B08"/>
<path d="M171.664 28.0626C173.162 28.0465 174.676 27.7887 176.174 27.8048C176.947 27.8048 178.171 27.9176 178.703 27.1444C178.816 26.9833 178.719 26.79 178.606 26.6773C177.672 25.8074 175.787 25.9846 174.66 25.7752C172.469 25.3725 170.15 25.2598 167.927 25.2437C162.998 25.1953 158.133 26.6934 153.188 26.8223C153.091 26.8223 153.156 27.0155 153.252 26.9994C157.456 26.9672 161.628 26.194 165.816 25.8397C168.056 25.6625 170.295 25.9202 172.534 26.0491C173.645 26.1135 174.724 26.2907 175.82 26.5001C176.48 26.629 177.414 26.5484 178.091 26.8867C177.479 27.3216 176.399 27.1927 175.755 27.1927C174.338 27.1927 172.92 27.4344 171.503 27.4666C167.991 27.531 164.512 27.8048 161 27.7565C157.875 27.6921 154.766 27.6599 151.641 27.676C149.821 27.676 147.985 27.7082 146.165 27.5954C145.456 27.5471 144.747 27.4505 144.054 27.3538C143.732 27.3055 143.41 27.2733 143.088 27.225C143.185 27.225 141.735 27.0961 142.605 26.9833C148.758 26.2746 154.879 25.0826 161.048 24.6154C164.544 24.3416 167.975 24.1161 171.47 24.5188C173.049 24.7121 174.611 25.0343 176.174 25.3564C177.43 25.6141 180.33 25.9363 181.023 27.3699C181.087 27.5149 181.264 27.4344 181.2 27.2733C180.733 26.2746 179.541 26.0491 178.687 25.743C177.012 25.147 175.304 24.8248 173.597 24.4383C169.972 23.6006 166.187 23.6167 162.514 23.8906C158.616 24.1805 154.734 24.5993 150.868 25.2114C148.903 25.5175 146.922 25.6786 144.957 26.0168C143.926 26.194 142.266 26.0007 141.445 26.7739C141.348 26.8545 141.381 27.0478 141.445 27.1444C141.944 27.9176 142.879 27.8048 143.652 27.9015C145.279 28.1109 146.889 28.2559 148.516 28.272C152.705 28.272 156.893 28.272 161.081 28.3364C164.624 28.4008 168.168 28.1109 171.712 28.0626H171.664Z" fill="#321B08"/>
<path d="M168.796 26.8875C168.925 26.8875 168.877 26.6781 168.78 26.662C167.008 26.517 165.253 26.4365 163.481 26.662C163.287 26.6781 163.448 26.9842 163.593 26.9842C165.333 26.952 167.073 26.8553 168.812 26.8875H168.796Z" fill="#321B08"/>
<path d="M121.229 26.5966C126.609 26.3872 131.973 25.5174 137.337 25.1308C139.898 24.9536 142.444 24.7281 145.005 24.6153C147.663 24.5026 150.304 24.5509 152.93 23.9549C153.059 23.9227 152.962 23.7133 152.865 23.7294C150.401 24.2126 147.904 24.1482 145.407 24.1643C142.846 24.1643 140.301 24.422 137.756 24.5348C132.36 24.7925 126.98 25.5818 121.584 25.8718C116.139 26.1617 110.614 25.904 105.202 25.2113C102.608 24.8731 100.031 24.4865 97.4215 24.4059C94.7475 24.3254 92.0414 24.9053 89.3674 25.0503C89.158 25.0503 89.2869 25.4369 89.4479 25.4369C91.9608 25.4691 94.4737 25.1147 96.9865 25.0342C99.741 24.9375 102.544 25.5013 105.282 25.8879C110.566 26.6289 115.93 26.7899 121.245 26.5805L121.229 26.5966Z" fill="#321B08"/>
<path d="M128.768 28.3373C132.005 28.0151 135.227 27.7252 138.481 27.6608C138.626 27.6608 138.513 27.3869 138.4 27.403C135.324 27.4191 132.263 27.6124 129.203 27.8702C125.997 28.1279 122.743 28.2406 119.538 28.6595C119.345 28.6917 119.457 29.0299 119.618 29.0299C122.647 29.1266 125.739 28.6433 128.768 28.3373Z" fill="#321B08"/>
<path d="M130.781 21.1211C135.614 20.9923 140.446 20.654 145.279 20.5412C150.304 20.4446 155.282 19.7197 160.307 19.8003C160.452 19.8003 160.404 19.5748 160.275 19.5587C155.781 19.3492 151.303 19.7519 146.809 19.9614C141.783 20.1869 136.741 20.2191 131.699 20.3963C126.561 20.5735 121.439 20.2674 116.316 20.0902C114.013 20.0097 111.693 20.0419 109.39 20.0902C106.99 20.1385 104.606 20.0097 102.222 20.4124C102.061 20.4446 102.173 20.7184 102.318 20.7023C104.541 20.4446 106.78 20.6379 109.003 20.6701C111.661 20.7023 114.303 20.6862 116.961 20.799C121.568 20.9923 126.174 21.2178 130.765 21.105L130.781 21.1211Z" fill="#321B08"/>
<path d="M99.9822 22.5217C102.527 22.2318 105.121 22.3768 107.682 22.3285C107.779 22.3285 107.698 22.1513 107.617 22.1513C105.024 22.1352 102.431 22.0224 99.8373 22.1029C98.6775 22.1352 97.5016 22.2962 96.3579 22.409C95.2304 22.5056 94.0384 22.3123 92.9591 22.7473C92.7497 22.8278 92.9591 23.2144 93.1363 23.1822C95.3753 22.7634 97.711 22.7956 99.9661 22.5379L99.9822 22.5217Z" fill="#321B08"/>
<path d="M81.0718 21.0403C81.249 21.0403 81.1846 20.7825 81.0396 20.7664C79.01 20.5409 77.0448 19.961 75.0152 19.7355C72.9694 19.4939 70.9237 19.3972 68.8619 19.3972C66.8 19.3972 64.7221 19.4134 62.6603 19.4295C60.6468 19.4295 58.3272 19.0751 56.3781 19.655C56.1204 19.7355 56.3137 20.1382 56.5231 20.106C58.3755 19.8 60.389 20.0094 62.2737 19.9932C64.3355 19.9771 66.3973 19.9449 68.4753 19.9127C70.6821 19.8805 72.8728 19.9932 75.0796 20.1865C77.0931 20.3637 79.0744 20.847 81.0879 21.0403H81.0718Z" fill="#321B08"/>
<path d="M71.2616 21.5405C73.4523 21.5888 75.6108 21.9271 77.8015 22.0882C77.9626 22.0882 77.8982 21.8304 77.7693 21.8143C73.3718 21.2183 69.0387 21.0733 64.6251 20.8962C62.5633 20.8156 60.5014 20.6223 58.4235 20.6868C56.4905 20.7351 54.2676 21.476 52.3669 21.0895C52.1252 21.0411 52.2219 21.4438 52.4152 21.476C54.0099 21.7982 55.814 21.2505 57.4087 21.1378C59.841 20.9606 62.2411 21.2022 64.6573 21.3311C66.848 21.4438 69.0548 21.4922 71.2455 21.5405H71.2616Z" fill="#321B08"/>
<path d="M86.9671 26.436C87.1443 26.4521 87.0637 26.1783 86.9348 26.1622C80.991 25.2279 74.8377 25.5984 68.8455 25.5823C65.5916 25.5662 62.3378 25.5501 59.084 25.4051C56.1684 25.2763 53.2529 24.793 50.3373 24.8574C49.999 24.8574 50.2245 25.4696 50.4823 25.5018C56.2651 26.13 62.1123 26.3394 67.9112 26.2589C74.2256 26.1783 80.6688 25.8078 86.9671 26.4521V26.436Z" fill="#321B08"/>
<path d="M66.5585 24.0845C65.1732 24.0845 63.7718 23.9073 62.3704 23.9556C62.1932 23.9556 62.306 24.2939 62.4509 24.31C63.8523 24.3583 65.2537 24.3583 66.639 24.3422C66.784 24.3422 66.6713 24.0845 66.5585 24.0845Z" fill="#321B08"/>
<path d="M8.48852 19.268C10.3248 19.1713 12.1612 19.0264 14.0136 18.978C18.1856 18.8653 22.3415 19.4613 26.5135 19.5579C34.5031 19.719 42.4444 19.5579 50.434 19.9606C50.595 19.9606 50.5306 19.7029 50.4017 19.6868C42.2511 18.817 34.052 19.1552 25.8852 18.8653C21.826 18.7203 17.8312 18.0277 13.7559 18.1565C11.7585 18.2048 9.74495 18.4626 7.76366 18.6559C6.00788 18.8331 4.28431 18.9458 2.60907 19.6385C2.41577 19.719 2.64129 20.0573 2.80237 19.9928C4.63869 19.3002 6.58777 19.3485 8.48852 19.2519V19.268Z" fill="#321B08"/>
<path d="M26.4168 23.7136C26.6906 23.6813 26.5134 23.2142 26.304 23.1981C24.4838 23.1014 22.7119 23.4075 20.9078 23.6008C18.6849 23.8424 16.4298 23.7619 14.2069 23.9874C10.1476 24.4062 6.04006 24.5029 1.99693 24.8894C1.81974 24.9056 1.94861 25.2116 2.09358 25.1955C10.1798 24.6317 18.3305 24.4062 26.4168 23.6974V23.7136Z" fill="#321B08"/>
<path d="M12.7571 23.2944C14.5773 22.9239 16.3975 22.5051 18.2177 22.1346C19.1198 21.9413 20.7467 22.0541 21.3749 21.1682C21.5199 20.9588 21.3749 20.6849 21.1816 20.5883C20.0863 20.0567 18.701 20.25 17.5412 20.2661C15.6243 20.2983 13.7236 20.4272 11.8067 20.4916C8.31124 20.6044 4.54195 20.6527 1.14315 21.7642C1.03039 21.7964 1.14315 22.038 1.25591 22.0058C4.31644 21.1198 7.69914 21.1843 10.8563 21.0715C12.4671 21.0232 14.094 21.0393 15.7049 20.9749C17.1224 20.9265 18.9587 20.5883 20.4245 20.9588C19.9413 21.1682 19.297 21.297 19.0875 21.3453C18.2016 21.5548 17.2996 21.7158 16.4136 21.9091C14.7706 22.2635 13.1437 22.6823 11.5006 22.9884C8.31124 23.6005 4.97687 23.6649 1.75526 23.9388C1.51363 23.9549 1.70693 24.3415 1.88412 24.3415C5.44401 24.3415 9.24551 23.9871 12.741 23.2783L12.7571 23.2944Z" fill="#321B08"/>
<path d="M8.13431 22.9401C8.35983 22.924 8.21485 22.5213 8.05377 22.5213C5.66978 22.4246 3.35021 23.2784 0.998432 23.4716C0.853459 23.4716 0.966216 23.7294 1.07897 23.7294C3.41464 23.7294 5.81475 23.1817 8.13431 22.9562V22.9401Z" fill="#321B08"/>
<path d="M13.6271 26.7755C17.7669 26.2762 21.9228 25.954 26.0787 25.6802C30.2346 25.3902 34.3421 24.5848 38.4819 24.2788C42.8794 23.9566 47.2769 24.0533 51.6744 23.9888C51.8838 23.9888 51.7228 23.6184 51.5456 23.6184C47.3091 23.6184 43.0727 23.4734 38.8524 23.6506C34.6804 23.8278 30.5567 24.5365 26.4009 24.9392C22.2611 25.3419 18.1213 25.5835 13.9815 26.1151C11.968 26.3728 9.97061 26.5661 7.9571 26.6628C5.87916 26.7594 3.83343 26.6628 1.78771 27.146C1.56219 27.1943 1.72327 27.597 1.91657 27.5648C5.73418 26.8078 9.7451 27.2588 13.611 26.7916L13.6271 26.7755Z" fill="#321B08"/>
</g>
<g style="mix-blend-mode:screen" opacity="0.4">
<path d="M432.421 18.091C434.902 15.7393 437.093 13.0331 439.67 10.7941C442.408 8.41008 445.308 6.23549 448.175 4.09311C448.288 4.01257 448.159 3.80317 448.046 3.8676C445.662 5.41397 443.439 7.31473 441.184 9.10272C438.639 11.1162 436.191 13.1459 433.903 15.5298C429.409 20.2334 423.288 25.2913 416.829 24.4537C416.458 24.4054 416.603 25.0014 416.893 25.0497C422.547 25.9518 428.233 22.0214 432.405 18.091H432.421Z" fill="#A76946"/>
<path d="M430.665 16.5453C432.55 15.4982 434.322 14.1452 436.013 12.7438C439.944 9.50603 443.777 6.20387 448.062 3.61047C448.191 3.52993 448.046 3.30441 447.933 3.36885C443.955 5.36625 440.427 8.28181 436.915 11.1813C435.063 12.7115 433.211 14.2257 431.197 15.4982C429.345 16.6741 427.428 17.4795 425.446 18.301C425.366 18.3333 425.446 18.5104 425.527 18.4782C427.283 17.9306 429.039 17.4795 430.682 16.5614L430.665 16.5453Z" fill="#A76946"/>
<path d="M415.008 24.2924C414.751 24.1313 414.509 23.9863 414.283 23.7608C413.736 23.1809 414.155 22.3916 414.541 21.9245C414.896 21.4896 415.347 21.1352 415.782 20.7808C415.427 21.1513 415.153 21.5862 415.105 22.1017C415.008 23.0037 416.136 23.2776 416.667 23.2937C416.925 23.2937 416.861 22.9232 416.667 22.8588C416.313 22.746 415.137 22.4883 416.072 21.4412C416.555 20.8936 417.312 20.5231 417.908 20.1687C419.116 19.4438 420.485 18.9928 421.79 18.5096C424.512 17.4948 427.17 16.7216 429.812 15.449C429.924 15.4007 429.796 15.2074 429.699 15.2557C425.865 16.8343 421.838 17.6397 418.053 19.3794C417.505 19.6371 416.748 19.9915 416.12 20.4909C416.136 20.4103 416.039 20.2976 415.975 20.3459C415.105 20.9741 413.897 21.4573 413.623 22.7138C413.414 23.648 414.203 24.5823 414.976 24.6629C415.169 24.679 415.153 24.4051 415.024 24.3246L415.008 24.2924Z" fill="#A76946"/>
<path d="M426.22 20.6681C428.346 19.7016 430.666 18.3163 432.454 16.6733C432.534 16.5927 432.389 16.4316 432.309 16.5122C428.797 19.46 424.335 21.1674 420.083 21.8923C419.873 21.9245 420.002 22.2789 420.163 22.2789C422.16 22.3594 424.367 21.5218 426.22 20.6681Z" fill="#A76946"/>
<path d="M442.199 23.149C445.92 23.149 449.641 23.0845 453.362 22.9396C456.873 22.7946 460.369 22.3436 463.864 22.2791C467.343 22.2147 470.936 22.4724 474.399 22.0536C474.544 22.0375 474.431 21.7959 474.318 21.812C470.823 22.0214 467.247 21.7959 463.751 21.7315C460.401 21.6831 457.034 22.0053 453.684 22.1181C450.188 22.2308 446.693 22.4241 443.214 22.6657C439.525 22.9235 435.836 22.8912 432.147 23.0684C432.018 23.0684 432.099 23.3262 432.196 23.3262C435.53 23.4228 438.848 23.1812 442.183 23.1812L442.199 23.149Z" fill="#A76946"/>
<path d="M434.998 22.4727C437.608 22.2311 440.233 22.0217 442.859 21.9412C442.939 21.9412 442.875 21.7962 442.811 21.7962C437.93 21.7801 432.952 21.9089 428.12 22.7466C427.911 22.7788 428.039 23.117 428.201 23.1332C430.44 23.3587 432.775 22.666 434.998 22.4566V22.4727Z" fill="#A76946"/>
<path d="M425.027 27.6276C430.198 27.2088 435.417 26.9833 440.588 26.9672C446.016 26.9511 451.445 26.5484 456.873 26.7095C462.044 26.8705 467.263 27.3538 472.433 27.3699C472.595 27.3699 472.498 27.0799 472.369 27.0638C469.856 27.0155 467.359 26.6611 464.863 26.5162C462.189 26.3712 459.499 26.3068 456.825 26.194C451.718 25.9685 446.628 26.3229 441.522 26.339C436.303 26.3551 431.068 26.4517 425.849 26.8061C423.368 26.9672 420.904 27.1444 418.423 27.1927C415.942 27.2249 413.381 27.6115 410.917 27.1444C410.643 27.0961 410.772 27.5149 410.965 27.5793C413.091 28.1431 415.363 27.7404 417.521 27.7404C420.034 27.7404 422.515 27.8209 425.027 27.6115V27.6276Z" fill="#A76946"/>
<path d="M469.953 24.3574C470.066 24.3574 469.985 24.1641 469.888 24.1641C465.733 24.1641 461.577 24.4218 457.421 24.6634C453.168 24.905 448.916 24.9373 444.663 25.05C444.502 25.05 444.631 25.3238 444.744 25.3238C453.168 25.3722 461.528 24.5829 469.937 24.3574H469.953Z" fill="#A76946"/>
<path d="M383.034 22.3925C386.288 22.2154 389.541 22.4248 392.795 22.2315C395.695 22.0543 398.61 22.0543 401.526 22.0704C404.602 22.0704 407.599 21.7482 410.659 21.5227C410.804 21.5227 410.691 21.2972 410.579 21.2972C407.518 21.265 404.474 21.5871 401.397 21.4744C398.449 21.3616 395.485 21.2489 392.538 21.41C389.525 21.571 386.513 21.7482 383.485 21.9576C380.231 22.1831 376.993 22.1509 373.739 22.2315C373.514 22.2315 373.691 22.6181 373.868 22.6181C376.929 22.6503 379.989 22.5375 383.05 22.3764L383.034 22.3925Z" fill="#A76946"/>
<path d="M402.202 27.5965C404.264 27.4194 406.374 27.3388 408.404 26.8234C409.467 26.5495 410.546 26.0663 411.142 24.9548C411.174 24.8904 411.142 24.7776 411.11 24.7132C410.691 24.085 409.918 24.0044 409.274 23.8273C407.453 23.3279 405.585 23.1024 403.732 22.9735C400.334 22.7319 396.887 22.5386 393.488 22.9735C389.847 23.4568 386.271 24.2783 382.615 24.6649C379.087 25.0515 375.511 25.4542 371.967 25.5186C371.693 25.5186 371.903 26.018 372.128 26.018C379.168 25.9052 386.142 24.681 393.085 23.5856C396.806 22.9896 400.591 23.2635 404.328 23.5212C406.004 23.634 407.663 23.9078 409.306 24.2944C410.015 24.4555 410.917 24.536 410.256 25.2931C409.515 26.1629 408.227 26.3562 407.228 26.5656C404.038 27.2422 400.479 27.4838 397.241 27.2905C396.484 27.2422 395.727 27.21 394.954 27.1294C394.615 27.0972 394.293 27.065 393.955 27.0328C393.826 27.0328 391.651 26.469 392.328 26.0018C393.439 25.2126 395.002 25.0837 396.419 25.0031C395.759 25.132 395.082 25.3414 394.647 25.728C394.519 25.8408 394.68 26.0341 394.76 26.0985C395.678 26.6462 396.999 26.4207 398.014 26.4529C399.238 26.4851 400.446 26.469 401.671 26.3562C402.991 26.2274 404.328 26.0341 405.649 25.9213C406.036 25.8891 406.632 25.8086 406.906 25.4381C406.97 25.3575 406.97 25.2609 406.938 25.1642C406.648 24.2461 405.214 24.5199 404.586 24.4394C402.46 24.2139 400.366 24.2944 398.223 24.4394C396.291 24.5682 394.325 24.5682 392.473 25.2931C392.119 25.4381 390.943 26.179 391.764 26.7267C393.037 27.5804 394.696 27.4999 396.113 27.6449C398.127 27.8543 400.173 27.7737 402.186 27.5965H402.202ZM403.571 24.8743C404.409 24.9709 405.263 25.0354 406.1 25.1159C406.696 25.1642 405.52 25.3253 405.359 25.3414C403.732 25.4864 402.122 25.7441 400.495 25.9052C399.641 25.9857 398.803 25.9857 397.95 25.9857C397.241 25.9857 396.065 26.1146 395.243 25.873C396.065 25.3736 397.499 25.277 398.288 25.2126C399.689 25.0998 401.091 25.2287 402.476 25.422C402.589 25.422 402.54 25.2448 402.46 25.2287C401.332 25.0193 400.237 24.8743 399.126 24.8421C400.607 24.7454 402.122 24.7132 403.571 24.8743Z" fill="#A76946"/>
<path d="M400.72 29.2703C404.119 29.2703 407.534 28.8031 410.933 28.7709C411.062 28.7709 410.965 28.5293 410.852 28.5293C407.453 28.5937 404.022 28.8837 400.624 28.8192C399.222 28.787 397.853 28.6421 396.452 28.6582C395.678 28.6582 394.889 28.6904 394.116 28.8353C393.359 28.9803 392.634 28.7065 391.877 28.7548C391.7 28.7548 391.812 29.0609 391.941 29.0931C393.182 29.2703 394.325 29.2703 395.566 29.2058C397.289 29.1092 398.997 29.2703 400.72 29.2864V29.2703Z" fill="#A76946"/>
<path d="M360.225 27.2098C360.37 27.2259 360.305 27.0004 360.193 26.9843C356.906 26.3561 353.443 26.8715 350.125 26.6621C346.356 26.4205 342.57 26.2272 338.817 25.6956C335.241 25.1802 331.713 24.5359 328.121 24.1332C326.204 23.9238 324.288 23.6821 322.371 23.4727C326.124 23.6338 329.877 23.8754 333.63 24.0043C333.791 24.0043 333.743 23.7466 333.598 23.7305C329.168 23.4244 324.755 22.9734 320.325 22.7157C315.734 22.4418 311.16 22.5062 306.617 21.5559C302.381 20.6699 298.305 19.7357 293.988 19.4457C289.639 19.1558 285.274 19.188 280.941 19.5424C280.796 19.5424 280.909 19.8162 281.021 19.8001C285.564 19.7034 290.09 19.7357 294.617 20.1061C298.917 20.4444 303.009 21.5237 307.229 22.4096C310.37 23.07 313.56 23.215 316.749 23.2955C320.325 23.8432 323.965 24.0687 327.558 24.5036C331.359 24.9547 335.064 25.7923 338.849 26.3883C342.409 26.9521 346.017 27.0648 349.593 27.2259C353.089 27.387 356.729 26.7427 360.193 27.2259L360.225 27.2098Z" fill="#A76946"/>
<path d="M333.791 21.1035C335.128 20.7813 332.889 19.3316 332.631 19.2188C331.133 18.5584 329.587 18.0107 327.992 17.5436C327.992 17.463 327.928 17.3664 327.847 17.3342C326.559 16.9959 325.27 16.7865 323.981 16.6415C321.565 16.2388 319.133 16.0938 316.765 16.2388C316.475 16.2549 316.7 16.7382 316.926 16.7382C317.329 16.7382 317.731 16.7382 318.134 16.7382C322.693 16.7704 327.396 17.7047 331.665 19.4282C332.1 19.6054 332.519 19.7987 332.954 19.992C334.226 20.5558 332.325 20.6846 332.213 20.7008C330.94 20.8779 329.667 20.9746 328.395 21.0229C325.769 21.1196 323.128 21.0712 320.518 20.9424C315.573 20.6846 310.708 19.847 305.811 19.1061C303.331 18.7195 300.834 18.4134 298.353 18.1074C297.322 17.9785 296.292 17.8335 295.261 17.7047C294.455 17.608 293.601 17.608 292.78 17.463C293.634 17.2858 294.552 17.2536 295.389 17.157C296.871 16.9798 298.353 16.7865 299.835 16.6576C302.735 16.3838 305.618 16.1744 308.534 16.3999C311.369 16.6254 314.188 17.0603 317.007 17.6241C318.327 17.8818 319.632 18.204 320.937 18.4939C321.919 18.7034 323.369 18.7517 324.465 19.1383C323.418 19.2832 322.258 19.2027 321.243 19.2994C319.246 19.4926 317.184 19.3155 315.202 19.1061C313.35 18.8967 311.498 18.8322 309.661 18.5584C309.291 18.5101 308.92 18.4456 308.55 18.3812C310.434 17.7852 312.496 18.0268 314.429 18.0912C314.606 18.0912 314.542 17.8174 314.397 17.8013C312.351 17.608 309.742 17.0925 307.825 18.1396C307.777 18.1718 307.744 18.204 307.744 18.2523C306.552 18.0429 305.344 17.8496 304.136 17.8174C303.943 17.8174 304.023 18.1074 304.168 18.1235C307.873 18.4617 311.562 19.251 315.283 19.6698C316.974 19.8631 318.65 19.9276 320.341 19.9115C321.936 19.8954 323.836 20.0081 325.383 19.5893C325.608 19.5249 325.544 19.2027 325.383 19.0899C324.738 18.6228 323.869 18.5584 323.128 18.4295C321.436 18.1235 319.761 17.608 318.086 17.2214C314.912 16.4965 311.707 15.9811 308.485 15.7234C305.521 15.4817 302.606 15.7556 299.642 16.0616C298.16 16.2227 296.694 16.4482 295.212 16.6093C294.02 16.7543 292.716 16.8026 291.572 17.2214C291.33 17.302 291.54 17.6885 291.685 17.753C293.73 18.5584 296.275 18.4456 298.418 18.7034C301.478 19.0738 304.539 19.4765 307.583 19.9598C313.447 20.8941 319.294 21.6995 325.222 21.7317C328.041 21.7478 331.037 21.8444 333.807 21.1679L333.791 21.1035Z" fill="#A76946"/>
<g style="mix-blend-mode:multiply" opacity="0.6">
<path d="M218.715 20.0727C221.002 19.6861 223.274 19.3156 225.561 19.1223C225.448 19.2028 225.609 19.4283 225.738 19.3961C226.205 19.2189 226.688 19.1062 227.156 19.0095C228.831 18.929 230.522 18.9451 232.23 19.1062C232.326 19.1062 232.375 19.074 232.407 19.0256C232.761 19.0417 233.132 19.0578 233.502 19.0578C236.466 19.0578 239.43 18.9451 242.394 19.0417C244.987 19.1223 247.581 19.074 250.174 19.0256C252.961 18.9773 255.715 18.478 258.502 18.4296C261.321 18.3652 264.188 17.7209 266.975 17.3504C269.826 16.9638 272.693 16.7705 275.544 16.4322C281.649 15.6913 287.786 15.2563 293.94 15.5141C294.101 15.5141 294.036 15.2563 293.907 15.2402C288.092 14.7409 282.294 15.1275 276.495 15.6913C273.611 15.9651 270.728 16.1262 267.845 16.4967C264.832 16.8671 261.852 17.4631 258.84 17.737C252.977 18.2686 247.114 18.5263 241.234 18.2041C238.383 18.043 235.516 18.1719 232.665 18.3169C232.069 18.3491 231.44 18.3491 230.828 18.3652C227.252 17.7853 223.612 18.2686 220.036 18.8323C215.397 19.5733 210.919 20.2982 206.215 20.1854C201.898 20.0888 197.597 19.7183 193.296 20.121C188.834 20.5398 184.373 20.3143 179.927 20.6525C179.653 20.6687 179.83 21.1519 180.039 21.168C184.147 21.3935 188.303 21.1036 192.394 20.9103C197.05 20.7009 201.657 20.8942 206.328 21.0553C210.516 21.2002 214.591 20.8136 218.731 20.1049L218.715 20.0727Z" fill="#A86A46"/>
</g>
<path d="M249.32 17.2697C249.481 17.302 249.417 17.0442 249.288 17.012C246.212 16.3194 243.103 16.8187 239.994 16.6576C237.127 16.5127 234.066 16.0938 231.231 16.8026C231.038 16.8509 231.183 17.1409 231.344 17.1248C234.42 16.8348 237.449 16.9315 240.541 17.0764C243.473 17.2214 246.405 16.706 249.32 17.2697Z" fill="#A76946"/>
<path d="M277.187 28.7875C277.381 28.868 277.364 28.5781 277.22 28.4975C273.724 26.7579 270.454 24.6477 266.781 23.3591C263.012 22.0382 258.921 23.4235 255.087 23.343C253.106 23.2946 251.124 23.4074 249.159 23.2463C246.92 23.0691 244.681 22.457 242.41 22.2959C238.174 21.9899 234.034 22.1348 229.813 22.3281C229.685 22.3281 229.781 22.5375 229.878 22.5375C234.098 22.5375 238.254 22.5053 242.474 22.8436C244.552 23.0047 246.614 23.3591 248.66 23.8423C250.625 24.2933 252.687 24.1484 254.684 24.1645C256.456 24.1967 258.18 24.2128 259.936 23.9067C262.046 23.5524 264.156 23.4396 266.25 23.939C270.068 24.8249 273.563 27.225 277.171 28.7714L277.187 28.7875Z" fill="#A76946"/>
<path d="M293.908 37.4216C292.893 36.4873 291.991 35.7786 290.783 35.2309C289.301 34.5543 288.012 33.4268 286.53 32.718C285.048 32.0093 283.55 31.3649 282.101 30.5756C280.377 29.6414 278.798 28.4816 277.123 27.4346C274.465 25.7754 271.888 23.8747 269.005 22.8277C266.283 21.829 263.125 21.7484 260.323 22.2961C260.194 22.3283 260.29 22.5377 260.387 22.5216C263.512 21.99 266.911 22.2961 269.875 23.6331C271.453 24.3418 272.838 25.3727 274.272 26.3875C275.529 27.2735 276.866 27.9822 278.138 28.8521C280.683 30.5918 283.212 31.7838 286.015 32.8469C287.416 33.3946 288.576 34.3288 289.897 35.0698C291.314 35.8591 292.555 36.5517 293.827 37.6471C293.972 37.776 294.037 37.5343 293.924 37.4377L293.908 37.4216Z" fill="#A76946"/>
<path d="M289.542 21.8287C289.671 21.8287 289.591 21.571 289.494 21.571C286.128 21.5227 282.745 21.5066 279.378 21.3777C275.996 21.2327 272.613 20.6045 269.246 20.2018C269.053 20.1857 269.134 20.4757 269.278 20.5079C272.613 21.2488 276.044 21.8287 279.443 21.9898C282.793 22.1509 286.208 21.9254 289.542 21.8287Z" fill="#A76946"/>
<path d="M263.56 19.4608C265.074 19.4769 266.54 19.8957 268.07 19.8796C271.485 19.8151 274.755 18.6876 278.138 18.4298C278.283 18.4298 278.17 18.1721 278.057 18.1882C274.82 18.2688 271.614 19.0258 268.376 19.1386C266.701 19.1869 265.074 18.8325 263.415 18.8164C261.74 18.8003 260 19.1386 258.357 19.4124C258.212 19.4447 258.325 19.6702 258.438 19.6702C260.145 19.5735 261.853 19.4608 263.56 19.493V19.4608Z" fill="#A76946"/>
<path d="M273.805 28.6422C272.194 27.869 270.841 27.0959 269.101 26.7093C267.023 26.2421 265.074 25.9039 262.964 25.7428C258.728 25.4367 254.556 25.0985 250.303 25.4689C245.89 25.8555 241.412 25.5978 236.998 25.6945C232.343 25.7911 227.72 26.3871 223.064 26.4676C222.839 26.4676 222.984 26.8865 223.161 26.9026C227.446 27.2569 231.715 26.4676 235.983 26.2421C240.268 26.0327 244.585 25.9683 248.87 25.9683C251.028 25.9683 253.187 25.775 255.361 25.8072C257.552 25.8394 259.743 26.1616 261.949 26.3066C264.076 26.4354 266.121 26.4999 268.215 26.9831C269.311 27.2408 270.406 27.3858 271.485 27.7241C272.307 27.9979 273.016 28.5295 273.805 28.8677C273.966 28.9322 273.966 28.6744 273.837 28.6261L273.805 28.6422Z" fill="#A76946"/>
<g style="mix-blend-mode:multiply" opacity="0.6">
<path d="M217.056 22.9883C220.262 22.5051 223.419 21.1359 226.689 21.603C227.124 21.6997 227.768 21.8769 227.881 21.8124C227.365 22.1668 226.511 22.1829 225.915 22.344C224.611 22.6823 223.306 23.0044 221.969 23.2622C221.727 23.3105 221.905 23.6971 222.098 23.681C223.676 23.5521 225.207 23.0206 226.769 22.6984C227.059 22.634 228.493 22.5373 228.428 21.9091C228.332 21.0876 227.059 20.9104 225.706 20.9426C223.242 20.6043 220.777 21.2165 218.329 21.7802C214.865 22.5695 211.322 23.1333 207.778 23.085C204.266 23.0367 200.69 23.1172 197.179 22.8595C193.812 22.6179 190.574 22.4246 187.192 22.6017C186.918 22.6017 187.095 23.1011 187.304 23.1172C190.623 23.1977 193.909 23.1172 197.227 23.3266C200.755 23.5521 204.315 23.7454 207.858 23.826C210.935 23.9065 213.995 23.4555 217.04 22.9883H217.056Z" fill="#A86A46"/>
</g>
<path d="M222.049 22.5702C222.372 22.3608 222.887 22.4574 223.225 22.4897C223.66 22.5219 224.111 22.5541 224.53 22.3447C224.723 22.248 224.514 21.9259 224.353 21.942C223.805 21.9903 223.257 22.0064 222.71 22.0386C222.42 22.0547 222.098 22.0709 221.856 22.2964C221.743 22.4091 221.937 22.6346 222.049 22.5702Z" fill="#A76946"/>
<path d="M349.368 24.4054C345.035 23.7289 340.605 23.1812 336.353 21.9409C336.224 21.9086 336.256 22.118 336.353 22.1664C340.412 23.8416 345.115 24.502 349.4 24.6953C349.577 24.6953 349.497 24.4376 349.368 24.4215V24.4054Z" fill="#A76946"/>
<path d="M347.677 21.7318C343.07 20.6848 338.511 19.2029 333.952 17.8981C333.743 17.8337 333.791 18.2042 333.952 18.2686C338.414 19.815 343.07 21.1842 347.693 21.9251C347.822 21.9412 347.757 21.7479 347.677 21.7318Z" fill="#A76946"/>
<path d="M149.982 22.8608C155.765 22.5387 161.483 21.7171 167.282 21.7332C170.488 21.7332 173.661 21.9749 176.85 22.2165C179.83 22.442 182.826 22.4742 185.823 22.6836C185.967 22.6836 185.919 22.4581 185.806 22.4581C180.007 21.8299 174.112 21.2983 168.297 21.1695C162.466 21.0406 156.699 21.5883 150.9 22.1037C138.787 23.1669 126.69 22.1037 114.576 21.9427C114.238 21.9427 114.351 22.4742 114.641 22.5064C120.52 23.0058 126.48 23.1508 132.376 23.4085C138.239 23.6662 144.151 23.183 149.998 22.8608H149.982Z" fill="#A76946"/>
<path d="M171.664 27.8858C173.162 27.8697 174.676 27.612 176.174 27.6281C176.947 27.6281 178.171 27.7409 178.703 26.9677C178.816 26.8066 178.719 26.6133 178.606 26.5005C177.672 25.6307 175.787 25.8079 174.66 25.5985C172.469 25.2119 170.149 25.0991 167.927 25.0669C162.997 25.0186 158.133 26.5166 153.188 26.6616C153.091 26.6616 153.155 26.8549 153.252 26.8549C157.456 26.8227 161.628 26.0334 165.816 25.6951C168.055 25.5018 170.294 25.7596 172.533 25.9045C173.645 25.969 174.724 26.1462 175.803 26.3556C176.464 26.4844 177.398 26.4039 178.059 26.7422C177.446 27.1771 176.367 27.0482 175.723 27.0482C174.305 27.0482 172.888 27.2898 171.47 27.322C167.959 27.3865 164.463 27.6603 160.968 27.5959C157.843 27.5476 154.734 27.4992 151.609 27.5153C149.789 27.5153 147.953 27.5476 146.132 27.4348C145.424 27.3865 144.715 27.2898 144.022 27.2093C143.7 27.161 143.378 27.1287 143.056 27.0804C143.152 27.0804 141.703 26.9354 142.572 26.8388C148.726 26.13 154.847 24.938 161.016 24.4709C164.512 24.1971 167.943 23.9555 171.438 24.3743C173.017 24.5676 174.579 24.8897 176.142 25.2119C177.398 25.4696 180.298 25.7918 180.99 27.2254C181.055 27.3704 181.232 27.2898 181.167 27.1287C180.7 26.13 179.508 25.9045 178.655 25.5985C176.979 25.0025 175.272 24.6803 173.564 24.2937C169.94 23.4561 166.155 23.4722 162.482 23.746C158.584 24.0521 154.702 24.4709 150.836 25.0669C148.871 25.373 146.889 25.534 144.924 25.8723C143.893 26.0495 142.25 25.8562 141.413 26.6455C141.316 26.726 141.348 26.9193 141.413 27.016C141.912 27.7892 142.846 27.6764 143.619 27.7731C145.23 27.9825 146.857 28.1274 148.484 28.1274C152.672 28.1274 156.86 28.1274 161.048 28.1919C164.592 28.2563 168.136 27.9664 171.68 27.918L171.664 27.8858Z" fill="#A76946"/>
<path d="M168.796 26.7098C168.925 26.7098 168.877 26.5004 168.78 26.4843C167.024 26.3393 165.252 26.2588 163.48 26.4843C163.287 26.5165 163.432 26.8064 163.577 26.8064C165.317 26.7742 167.056 26.6776 168.796 26.7098Z" fill="#A76946"/>
<path d="M121.229 26.4184C126.609 26.209 131.973 25.3392 137.337 24.9526C139.898 24.7754 142.444 24.5499 145.005 24.4371C147.663 24.3244 150.304 24.3727 152.93 23.7928C153.059 23.7606 152.962 23.5512 152.865 23.5673C150.401 24.0505 147.904 23.9861 145.407 24.0022C142.846 24.0022 140.301 24.2599 137.756 24.3727C132.36 24.6304 126.98 25.4197 121.584 25.7097C116.139 25.9996 110.614 25.7419 105.202 25.0492C102.608 24.711 100.031 24.3244 97.4215 24.2438C94.7475 24.1633 92.0414 24.7432 89.3674 24.8882C89.158 24.8882 89.2869 25.2747 89.4479 25.2747C91.9608 25.307 94.4737 24.9526 96.9865 24.872C99.741 24.7754 102.544 25.3392 105.266 25.7258C110.55 26.4667 115.914 26.6278 121.229 26.4184Z" fill="#A76946"/>
<path d="M128.768 28.1589C132.005 27.8367 135.243 27.5468 138.481 27.4823C138.626 27.4823 138.513 27.2246 138.4 27.2246C135.34 27.2407 132.263 27.4501 129.203 27.6917C125.997 27.9495 122.743 28.0622 119.538 28.481C119.345 28.5133 119.457 28.8515 119.618 28.8515C122.663 28.9482 125.739 28.4649 128.768 28.1589Z" fill="#A76946"/>
<path d="M130.781 20.959C135.614 20.8302 140.446 20.4919 145.279 20.3791C150.304 20.2825 155.282 19.5576 160.307 19.6382C160.452 19.6382 160.404 19.4126 160.275 19.3965C155.781 19.1871 151.303 19.5898 146.809 19.7992C141.783 20.0248 136.725 20.057 131.699 20.2342C126.561 20.4114 121.439 20.0892 116.316 19.9281C114.013 19.8476 111.693 19.8798 109.39 19.9281C106.99 19.9764 104.606 19.8315 102.222 20.2503C102.061 20.2825 102.173 20.5563 102.318 20.5402C104.541 20.2825 106.78 20.4758 109.003 20.508C111.661 20.5402 114.303 20.5241 116.961 20.6369C121.568 20.8302 126.158 21.0557 130.765 20.9429L130.781 20.959Z" fill="#A76946"/>
<path d="M99.9828 22.344C102.528 22.0541 105.121 22.199 107.682 22.1507C107.779 22.1507 107.699 21.9735 107.618 21.9735C105.025 21.9574 102.431 21.8447 99.8378 21.9252C98.678 21.9574 97.5182 22.1185 96.3584 22.2313C95.2309 22.3279 94.0389 22.1507 92.9596 22.5695C92.7502 22.6501 92.9596 23.0367 93.1529 23.0044C95.3919 22.5856 97.7276 22.6178 99.9828 22.3601V22.344Z" fill="#A76946"/>
<path d="M81.0718 20.8625C81.249 20.8625 81.1846 20.6048 81.0396 20.5887C79.01 20.3632 77.0448 19.7833 75.0152 19.5578C72.9694 19.3162 70.9237 19.2195 68.8619 19.2195C66.8 19.2195 64.7221 19.2517 62.6603 19.2517C60.6468 19.2517 58.3272 18.8974 56.3781 19.4772C56.1204 19.5578 56.3137 19.9605 56.5231 19.9283C58.3755 19.6222 60.389 19.8316 62.2737 19.8155C64.3355 19.8155 66.3973 19.7672 68.4753 19.735C70.6821 19.7028 72.8728 19.8155 75.0796 20.0088C77.0931 20.186 79.0744 20.6692 81.0879 20.8625H81.0718Z" fill="#A76946"/>
<path d="M71.2616 21.3776C73.4523 21.4259 75.6108 21.7642 77.8015 21.9252C77.9626 21.9252 77.8982 21.6675 77.7693 21.6514C73.3718 21.0554 69.0387 20.9104 64.6251 20.7332C62.5633 20.6527 60.5014 20.4755 58.4235 20.5238C56.4905 20.5722 54.2676 21.3131 52.3669 20.9265C52.1252 20.8782 52.2219 21.2809 52.4152 21.3131C54.0099 21.6353 55.814 21.0876 57.4087 20.9749C59.841 20.7977 62.2411 21.0393 64.6734 21.1682C66.8641 21.2809 69.0709 21.3292 71.2616 21.3776Z" fill="#A76946"/>
<path d="M86.9671 26.2588C87.1443 26.2749 87.0637 26.0011 86.9348 25.985C80.991 25.0507 74.8377 25.4373 68.8455 25.4051C65.5916 25.389 62.3378 25.3728 59.084 25.2118C56.1684 25.0829 53.2529 24.5997 50.3373 24.6641C49.999 24.6641 50.2245 25.2762 50.4823 25.3084C56.2651 25.9366 62.1123 26.146 67.9112 26.0655C74.2256 25.9849 80.6688 25.6306 86.9671 26.2588Z" fill="#A76946"/>
<path d="M66.5585 23.9224C65.1732 23.9224 63.7718 23.7452 62.3704 23.7935C62.1932 23.7935 62.306 24.1318 62.4509 24.1479C63.8362 24.1962 65.2537 24.1962 66.639 24.164C66.784 24.164 66.6713 23.9224 66.5585 23.9063V23.9224Z" fill="#A76946"/>
<path d="M8.48852 19.0909C10.3248 18.9942 12.1612 18.8492 14.0136 18.8009C18.1856 18.6721 22.3415 19.2842 26.5135 19.3808C34.5031 19.558 42.4444 19.3808 50.434 19.7835C50.595 19.7835 50.5306 19.5258 50.4017 19.5097C42.2511 18.6398 34.052 18.9781 25.8852 18.6882C21.826 18.5432 17.8312 17.8667 13.7559 17.9794C11.7585 18.0277 9.74495 18.2855 7.76366 18.4949C6.00788 18.6721 4.28431 18.7848 2.60907 19.4775C2.41577 19.558 2.64129 19.8963 2.80237 19.8479C4.63869 19.1553 6.58777 19.2036 8.48852 19.107V19.0909Z" fill="#A76946"/>
<path d="M26.4168 23.5514C26.6906 23.5192 26.5134 23.0521 26.304 23.036C24.4838 22.9393 22.7119 23.2454 20.9078 23.4387C18.6849 23.6803 16.4298 23.5998 14.2069 23.8253C10.1476 24.2441 6.04006 24.3407 1.99693 24.7273C1.81974 24.7434 1.94861 25.0495 2.09358 25.0334C10.1798 24.4857 18.3305 24.2441 26.4168 23.5353V23.5514Z" fill="#A76946"/>
<path d="M12.7571 23.1167C14.5773 22.7462 16.3975 22.3274 18.2177 21.9569C19.1198 21.7636 20.7467 21.8925 21.3749 20.9904C21.5199 20.781 21.3749 20.5072 21.1816 20.4105C20.0863 19.879 18.701 20.0723 17.5412 20.0884C15.6243 20.1206 13.7236 20.2495 11.8067 20.3139C8.31124 20.4266 4.54195 20.475 1.14315 21.5864C1.03039 21.6186 1.14315 21.8603 1.25591 21.828C4.31644 20.9421 7.69914 21.0065 10.8563 20.8938C12.4671 20.8455 14.094 20.8616 15.7049 20.7971C17.1224 20.7488 18.9587 20.4105 20.4245 20.781C19.9413 20.9904 19.297 21.1193 19.0875 21.1676C18.2016 21.377 17.2996 21.522 16.4136 21.7153C14.7706 22.0697 13.1437 22.4885 11.5006 22.8106C8.31124 23.4227 4.97687 23.4872 1.75526 23.761C1.51363 23.7771 1.70693 24.1637 1.88412 24.1637C5.44401 24.1637 9.24551 23.8093 12.741 23.1006L12.7571 23.1167Z" fill="#A76946"/>
<path d="M8.13431 22.7623C8.35983 22.7462 8.21485 22.3435 8.05377 22.3435C5.66978 22.2469 3.36632 23.1006 0.998432 23.2939C0.853459 23.2939 0.966216 23.5516 1.07897 23.5516C3.41464 23.5516 5.81475 23.004 8.13431 22.7785V22.7623Z" fill="#A76946"/>
<path d="M13.6271 26.5978C17.7669 26.0984 21.9228 25.7763 26.0786 25.4863C30.2345 25.1964 34.3421 24.391 38.4819 24.0849C42.8794 23.7628 47.2769 23.8594 51.6744 23.8111C51.8838 23.8111 51.7227 23.4406 51.5455 23.4406C47.3091 23.4406 43.0727 23.2956 38.8523 23.4728C34.6804 23.65 30.5567 24.3588 26.4008 24.7615C22.261 25.1642 18.1212 25.4058 13.9815 25.9374C11.968 26.1951 9.97056 26.3884 7.95705 26.485C5.87911 26.5817 3.83338 26.5012 1.78765 26.9683C1.54603 27.0166 1.72322 27.4193 1.91652 27.3871C5.73413 26.63 9.74504 27.081 13.611 26.6139L13.6271 26.5978Z" fill="#A76946"/>
</g>
<g style="mix-blend-mode:multiply" opacity="0.6">
<path d="M274.642 25.1474C271.759 23.5688 269.246 21.7647 265.976 21.4103C264.543 21.2653 263.061 21.5231 261.643 21.6358C259.871 21.7647 258.067 21.5714 256.311 21.813C255.844 21.8774 256.15 22.6506 256.505 22.6829C259.71 23.0372 262.964 22.9567 266.186 23.295C267.78 23.456 269.407 23.8104 270.937 24.3742C272.146 24.8252 273.418 25.6145 274.707 25.6145C274.965 25.6145 274.787 25.2118 274.658 25.1474H274.642Z" fill="#A86A46"/>
</g>
<path opacity="0.4" d="M380.038 22.7787C380.279 22.7465 380.118 22.3599 379.941 22.3438C376.945 22.07 373.917 22.07 370.921 21.8122C367.715 21.5223 364.542 21.0391 361.385 20.5075C359.983 20.2659 358.566 20.2014 357.18 19.9759C355.811 19.7504 354.474 19.3316 353.121 19.09C350.222 18.5584 347.29 18.3651 344.375 17.9141C344.149 17.8819 344.197 18.2524 344.375 18.3168C347.016 19.2188 349.948 19.1061 352.67 19.5249C355.682 19.992 358.517 21.2968 361.514 21.7317C367.554 22.6176 373.965 23.4392 380.054 22.7787H380.038Z" fill="#A76946"/>
<path opacity="0.4" d="M367.618 24.0033C364.799 23.9389 361.997 23.4717 359.194 23.3268C356.198 23.1818 353.202 23.2301 350.189 23.0207C349.787 22.9885 349.948 23.6328 350.254 23.6811C353.266 24.0999 356.23 23.8905 359.242 23.9389C362.061 23.9872 364.864 24.4704 367.699 24.4221C367.924 24.4221 367.779 24.0033 367.602 24.0033H367.618Z" fill="#A76946"/>
<path opacity="0.4" d="M373.353 28.4166C374.593 28.3682 375.817 28.0461 377.058 27.9494C378.507 27.8206 379.957 27.885 381.407 27.6917C384.177 27.3212 386.948 27.3212 389.719 27.2568C389.944 27.2568 389.767 26.8702 389.59 26.8702C384.242 26.838 378.942 27.0635 373.627 27.6595C370.663 27.9977 367.506 28.0461 364.542 27.8689C361.626 27.6917 358.727 27.1762 355.811 27.289C355.537 27.289 355.714 27.8044 355.924 27.8044C358.823 27.9172 361.707 28.1427 364.606 28.4327C367.522 28.7387 370.421 28.5132 373.337 28.4004L373.353 28.4166Z" fill="#A76946"/>
<g style="mix-blend-mode:multiply" opacity="0.6">
<path d="M211.064 18.2682C213.802 18.1715 216.573 18.0104 219.295 18.5259C219.585 18.5742 219.456 18.1232 219.247 18.0587C214.173 16.7379 208.954 17.6238 203.864 18.3487C203.59 18.3809 203.767 18.848 203.976 18.8642C206.344 19.0413 208.696 18.3487 211.064 18.2682Z" fill="#A86A46"/>
</g>
<g style="mix-blend-mode:multiply" opacity="0.6">
<path d="M205.926 26.5162C209.743 26.1618 213.577 25.6464 217.394 25.2115C221.695 24.7282 226.045 25.0343 230.345 25.2276C230.635 25.2276 230.523 24.7765 230.297 24.7604C226.479 24.3899 222.662 24.0839 218.828 24.3094C214.801 24.551 210.774 25.0826 206.747 25.437C202.559 25.8075 198.355 26.0652 194.167 25.9363C190.156 25.8075 186.032 24.4866 182.021 24.9859C181.683 25.0182 181.908 25.5658 182.15 25.5981C186.161 26.0813 190.22 26.339 194.247 26.6773C198.129 27.0156 202.06 26.8706 205.926 26.5162Z" fill="#A86A46"/>
</g>
<g style="mix-blend-mode:multiply" opacity="0.6">
<path d="M186.515 27.3381C186.757 27.2576 186.58 26.8388 186.37 26.9032C185.726 27.0643 185.081 27.0482 184.437 27.0804C184.196 27.0804 184.341 27.5475 184.534 27.5636C185.194 27.5636 185.871 27.5475 186.515 27.3542V27.3381Z" fill="#A86A46"/>
</g>
<g style="mix-blend-mode:multiply" opacity="0.6">
<path d="M91.4293 28.0794C94.3771 28.0472 97.3248 27.8861 100.273 27.7734C103.269 27.6606 106.265 27.9345 109.261 27.8056C109.406 27.8056 109.309 27.5479 109.213 27.5479C106.378 27.4673 103.543 27.274 100.708 27.0807C97.9208 26.9035 95.1019 27.2579 92.3152 27.274C86.2586 27.3062 80.0731 27.0002 74.0326 27.5801C73.7587 27.6123 73.9359 28.0794 74.1453 28.0955C79.8798 28.5144 85.6948 28.1278 91.4293 28.0633V28.0794Z" fill="#A86A46"/>
</g>
<g style="mix-blend-mode:multiply" opacity="0.6">
<path d="M96.4063 19.8648C98.1138 19.7842 99.8051 20.0097 101.513 19.8003C101.786 19.7681 101.577 19.3332 101.368 19.3493C99.628 19.4299 97.8883 19.0433 96.1486 19.0433C94.1673 19.0433 92.2182 19.2205 90.2208 19.1721C86.4838 19.0916 82.8433 18.85 79.1224 18.2862C77.27 17.9962 75.4497 17.6258 73.5812 17.513C71.7932 17.4002 70.0213 17.513 68.2333 17.5613C64.6895 17.6741 61.0974 16.9331 57.5698 17.6258C57.2154 17.6902 57.4892 18.2701 57.7631 18.2379C61.3552 17.8996 64.9151 18.4634 68.5072 18.4312C70.6173 18.4312 72.7275 18.3184 74.8376 18.4795C76.6578 18.6245 78.4942 19.0594 80.3144 19.3171C84.0353 19.8648 87.6758 19.9292 91.3967 20.042C93.0559 20.0903 94.7311 19.9131 96.3902 19.8487L96.4063 19.8648Z" fill="#A86A46"/>
</g>
<g style="mix-blend-mode:multiply" opacity="0.6">
<path d="M93.0561 22.2812C93.3138 22.2651 93.1528 21.798 92.9595 21.798C91.4775 21.7335 90.0117 21.7174 88.5298 21.7013C86.7256 21.7013 84.8571 21.4436 83.053 21.6208C82.6664 21.653 82.9564 22.2168 83.198 22.2812C86.3391 23.0705 89.8989 22.4745 93.0561 22.2812Z" fill="#A86A46"/>
</g>
<path d="M49.8059 21.41C46.407 21.3456 42.9599 20.8624 39.5772 20.4597C35.8885 20.0247 32.2158 19.5898 28.511 19.5254C28.2532 19.5254 28.3499 19.9281 28.5593 19.9442C35.6791 20.2986 42.7666 21.7483 49.8864 21.7644C50.0797 21.7644 49.9669 21.3939 49.8059 21.3939V21.41Z" fill="#A76946"/>
<g style="mix-blend-mode:multiply" opacity="0.6">
<path d="M52.802 18.0422C53.0919 18.0744 52.9792 17.6234 52.7537 17.5751C48.0662 16.7375 43.4432 16.5925 38.7074 16.9791C38.3853 17.0113 38.6269 17.5268 38.8846 17.5268C43.556 17.3979 48.1629 17.4623 52.8181 18.0422H52.802Z" fill="#A86A46"/>
</g>
<g style="mix-blend-mode:screen" opacity="0.4">
<path d="M417.118 22.3762C419.148 21.893 421.065 20.4594 423.014 19.6057C425.124 18.6714 427.283 17.9143 429.393 16.9317C431.519 15.933 433.549 14.7732 435.482 13.3235C437.286 11.9543 438.961 10.3757 440.797 9.03875C441.055 8.84546 440.749 8.36221 440.507 8.50719C436.561 11.0362 433.001 13.9839 428.636 15.5142C426.429 16.2874 424.174 16.819 421.999 17.721C420.163 18.4781 417.731 19.3801 416.506 21.2326C416.216 21.6836 416.635 22.4729 417.135 22.3601L417.118 22.3762Z" fill="#A76946"/>
</g>
<g style="mix-blend-mode:screen" opacity="0.4">
<path d="M451.751 23.8744C453.378 23.665 454.973 23.23 456.583 23.0045C458.194 22.7951 459.821 22.6663 461.432 22.4407C463.011 22.2152 464.573 21.9092 466.135 21.6515C467.569 21.4098 469.019 21.4098 470.452 21.1521C470.742 21.1038 470.517 20.6366 470.291 20.6528C468.809 20.7655 467.311 20.6366 465.829 20.7011C464.202 20.7816 462.592 20.9266 460.981 21.0232C459.322 21.1199 457.663 21.1199 456.003 21.1843C454.36 21.2649 452.75 21.6515 451.107 21.8609C447.869 22.2958 444.663 21.5548 441.426 21.5709C439.863 21.5709 438.317 21.5065 436.754 21.4904C435.16 21.4743 433.581 22.0542 432.002 22.328C431.664 22.3924 431.922 22.9079 432.196 22.9079C435.578 22.7146 438.945 23.0206 442.328 23.3267C445.501 23.6166 448.562 24.261 451.751 23.8583V23.8744Z" fill="#A76946"/>
</g>
<g style="mix-blend-mode:screen" opacity="0.4">
<path d="M395.485 22.8919C398.224 22.6342 400.978 22.5053 403.717 22.2476C404.957 22.1348 406.165 21.7643 407.389 21.5066C408.758 21.2005 410.192 21.12 411.545 20.7012C411.851 20.6045 411.626 20.1535 411.368 20.1696C410.095 20.2824 408.807 20.1696 407.534 20.2179C406.133 20.2824 404.731 20.4918 403.33 20.4596C400.656 20.379 398.03 20.4918 395.357 20.7012C392.409 20.9428 389.477 21.2328 386.513 21.0878C383.743 20.9589 381.085 20.4435 378.346 20.0085C373.111 19.187 367.941 19.9763 362.689 20.0891C357.213 20.2179 351.833 18.8004 346.372 18.8165C345.663 18.8165 346.211 19.9602 346.63 20.0569C349.11 20.6851 351.704 20.7334 354.233 20.9589C356.971 21.2166 359.693 21.5066 362.448 21.5871C367.989 21.7482 373.611 21.4099 379.12 22.2959C381.874 22.7308 384.548 23.1657 387.335 23.2785C390.057 23.3912 392.779 23.1013 395.502 22.8597L395.485 22.8919Z" fill="#A76946"/>
</g>
<g style="mix-blend-mode:screen" opacity="0.4">
<path d="M343.424 18.9124C340.75 17.9459 338.205 16.8667 335.386 16.4962C332.148 16.0613 328.943 15.7552 325.689 15.5297C322.532 15.3042 319.423 14.6599 316.282 14.3055C313.076 13.9511 309.855 13.7095 306.633 13.6128C300.431 13.4196 294.182 14.0317 287.996 14.4827C284.758 14.7243 281.521 15.1431 278.283 15.4975C275.464 15.8035 272.307 15.7713 269.617 16.8345C269.295 16.9633 269.649 17.4788 269.891 17.4466C275.851 16.8506 281.794 15.9646 287.771 15.6425C291.008 15.4653 294.262 15.2075 297.516 15.3042C300.818 15.4008 304.136 15.5941 307.439 15.723C313.431 15.9485 319.358 16.7217 325.335 17.1888C331.44 17.6721 337.416 17.962 343.44 19.3956C343.714 19.4601 343.649 18.9768 343.44 18.9124H343.424Z" fill="#A76946"/>
</g>
<g style="mix-blend-mode:screen" opacity="0.4">
<path d="M113.803 21.6032C115.865 21.5226 117.943 21.4743 120.005 21.426C121.406 21.3776 122.84 21.3937 124.274 21.2649C131.683 22.0542 139.302 21.1038 146.728 20.9427C150.771 20.8622 154.782 21.0072 158.825 21.0555C160.63 21.0716 162.434 21.0555 164.238 20.9427C166.058 20.83 168.023 21.1199 169.827 20.7494C169.892 20.7494 169.94 20.7011 169.956 20.6528C170.842 20.6206 171.744 20.5561 172.63 20.5078C175.223 20.395 177.849 20.4595 180.443 20.4434C185.517 20.4112 190.526 21.2005 195.584 20.5883C198.129 20.2823 200.69 20.2018 203.235 19.8796C205.845 19.5574 208.438 19.1225 211.064 18.8648C213.577 18.6232 216.106 18.4621 218.635 18.3493C219.698 18.301 220.761 18.3815 221.824 18.2366C221.921 18.2366 222.017 18.2205 222.098 18.2043C222.227 18.3815 222.404 18.5104 222.581 18.5265C225.69 18.7842 228.863 18.2849 231.988 18.3171C235.5 18.3654 239.011 18.5104 242.507 18.4943C249.901 18.446 257.181 18.7359 264.511 17.3989C264.768 17.3506 264.575 16.9318 264.366 16.964C257.117 18.0755 249.788 16.8029 242.523 16.7546C236.209 16.7063 229.862 16.4002 223.564 16.964C222.984 16.8513 222.372 16.6902 221.792 16.6902C220.6 16.6902 219.408 16.4969 218.216 16.4486C215.816 16.368 213.384 16.6902 211 16.8674C206.006 17.2379 201.029 18.0433 196.035 18.5104C191.219 18.9614 186.419 18.9453 181.586 18.9292C176.287 18.9292 171.003 19.3319 165.72 19.2514C165.543 19.2514 165.43 19.348 165.398 19.4769C163.094 19.2353 160.807 19.1869 158.423 19.1547C154.508 19.1064 150.61 18.9453 146.696 19.0098C142.75 19.0903 138.835 19.2997 134.889 19.5896C131.216 19.8635 127.495 19.6219 123.839 20.1051C122.647 19.9601 121.455 19.8313 120.23 19.799C118.265 19.7507 116.316 19.7668 114.351 19.799C110.163 19.8957 105.991 20.1695 101.803 19.944C97.6953 19.7185 93.5555 19.7346 89.4479 19.5252C85.5337 19.3158 81.6677 18.7359 77.7535 18.5587C72.5345 17.3667 67.106 17.6567 61.8065 17.1573C56.0398 16.6258 50.2409 15.9492 44.442 15.9492C41.4137 15.9492 38.5303 16.0459 35.5342 16.6741C32.232 17.3667 29.091 17.8016 25.7244 17.5761C22.7927 17.3828 19.861 17.0768 16.9294 16.964C14.1266 16.8513 11.1788 16.7063 8.45651 17.6567C8.00549 17.8178 8.48873 18.6554 8.85922 18.5748C11.9681 18.0111 14.9803 17.8822 18.1375 18.0433C21.1175 18.1882 24.033 18.8003 26.9969 19.0742C29.8964 19.348 32.7475 19.2997 35.6147 18.8003C38.627 18.2688 41.4942 17.9466 44.5547 17.9627C55.8143 18.0433 67.0416 19.5413 78.3011 19.5574C81.861 20.0729 85.4531 20.2662 89.013 20.83C93.2817 21.5065 97.6792 21.4582 101.98 21.6998C105.91 21.9253 109.841 21.732 113.787 21.5709L113.803 21.6032Z" fill="#A76946"/>
</g>
<g style="mix-blend-mode:screen" opacity="0.4">
<path d="M293.763 36.6636C292.732 35.3911 291.588 34.3279 290.3 33.3937C288.834 32.3466 287.11 31.9439 285.628 30.9613C284.227 30.0271 282.552 29.6244 281.021 29.0606C279.201 28.3679 277.462 27.5142 275.931 26.1772C274.659 25.0336 273.451 23.6644 272.081 22.6818C270.841 21.7958 269.375 21.3448 267.974 20.9421C266.025 20.4105 263.979 20.3622 261.998 20.33C260.355 20.2978 258.776 20.2817 257.23 21.0065C256.891 21.1676 257.262 21.7314 257.52 21.6831C259.098 21.4415 260.661 21.5703 262.256 21.5542C264.221 21.522 266.138 21.5542 268.087 21.973C271.437 22.714 273.563 25.839 276.27 27.9491C278.879 29.9787 282.101 30.317 284.968 31.6379C286.385 32.2983 287.835 32.9104 289.237 33.6353C290.815 34.4568 292.184 35.7938 293.553 36.9858C293.763 37.163 293.908 36.8569 293.747 36.6636H293.763Z" fill="#A76946"/>
</g>
</svg>
